<?xml version="1.0" encoding="UTF-8"?>
<svg id="_图层_2" data-name="图层 2" xmlns="http://www.w3.org/2000/svg" xmlns:xlink="http://www.w3.org/1999/xlink" viewBox="0 0 162.4 45.68">
  <defs>
    <style>
      .cls-1 {
        fill: url(#_未命名的渐变_91);
      }

      .cls-1, .cls-2, .cls-3, .cls-4, .cls-5, .cls-6, .cls-7, .cls-8, .cls-9, .cls-10, .cls-11, .cls-12, .cls-13, .cls-14, .cls-15, .cls-16, .cls-17, .cls-18, .cls-19, .cls-20, .cls-21, .cls-22, .cls-23, .cls-24, .cls-25, .cls-26, .cls-27 {
        stroke-width: 0px;
      }

      .cls-2 {
        fill: url(#_未命名的渐变_680-2);
      }

      .cls-3 {
        fill: url(#_未命名的渐变_622);
      }

      .cls-4 {
        fill: url(#_未命名的渐变_628);
      }

      .cls-5 {
        fill: url(#_未命名的渐变_637);
      }

      .cls-6 {
        fill: url(#_未命名的渐变_680);
      }

      .cls-7 {
        fill: url(#_未命名的渐变_171);
      }

      .cls-8 {
        fill: url(#_未命名的渐变_381);
      }

      .cls-9 {
        fill: url(#_未命名的渐变_503);
      }

      .cls-10 {
        fill: url(#_未命名的渐变_147);
      }

      .cls-11 {
        fill: url(#_未命名的渐变_121);
      }

      .cls-12 {
        fill: url(#_未命名的渐变_126);
      }

      .cls-13 {
        fill: url(#_未命名的渐变_162);
      }

      .cls-14 {
        fill: url(#_未命名的渐变_155);
      }

      .cls-15 {
        fill: url(#_未命名的渐变_165);
      }

      .cls-16 {
        fill: url(#_未命名的渐变_105);
      }

      .cls-17 {
        fill: url(#_未命名的渐变_203);
      }

      .cls-18 {
        fill: url(#_未命名的渐变_201);
      }

      .cls-19 {
        fill: url(#_未命名的渐变_182);
      }

      .cls-20 {
        fill: url(#_未命名的渐变_181);
      }

      .cls-21 {
        fill: url(#_未命名的渐变_196);
      }

      .cls-22 {
        fill: #c82826;
      }

      .cls-23 {
        fill: #edc300;
      }

      .cls-24 {
        fill: #fff;
      }

      .cls-25 {
        fill: #e83828;
      }

      .cls-26 {
        fill: #e83820;
      }

      .cls-27 {
        fill: #f5c91f;
      }
    </style>
    <linearGradient id="_未命名的渐变_381" data-name="未命名的渐变 381" x1="36.38" y1="-18.84" x2="84.74" y2="29.51" gradientUnits="userSpaceOnUse">
      <stop offset=".57" stop-color="#e94843" stop-opacity="0"/>
      <stop offset=".61" stop-color="#e54641" stop-opacity=".04"/>
      <stop offset=".67" stop-color="#da413d" stop-opacity=".16"/>
      <stop offset=".74" stop-color="#c83837" stop-opacity=".36"/>
      <stop offset=".82" stop-color="#af2c2e" stop-opacity=".63"/>
      <stop offset=".9" stop-color="#901e22" stop-opacity=".97"/>
      <stop offset=".9" stop-color="#8e1d22"/>
      <stop offset=".93" stop-color="#8e1d22" stop-opacity=".98"/>
      <stop offset=".94" stop-color="#8e1d22" stop-opacity=".91"/>
      <stop offset=".96" stop-color="#8e1d22" stop-opacity=".8"/>
      <stop offset=".97" stop-color="#8e1d22" stop-opacity=".64"/>
      <stop offset=".99" stop-color="#8e1d22" stop-opacity=".43"/>
      <stop offset="1" stop-color="#8e1d22" stop-opacity=".2"/>
    </linearGradient>
    <linearGradient id="_未命名的渐变_162" data-name="未命名的渐变 162" x1="7.27" y1="16.01" x2="31.07" y2="16.01" gradientUnits="userSpaceOnUse">
      <stop offset="0" stop-color="#a01f24"/>
      <stop offset=".3" stop-color="#e7211a"/>
      <stop offset=".36" stop-color="#e72922" stop-opacity=".96"/>
      <stop offset=".47" stop-color="#ea413b" stop-opacity=".86"/>
      <stop offset=".6" stop-color="#ee6762" stop-opacity=".68"/>
      <stop offset=".75" stop-color="#f49c99" stop-opacity=".44"/>
      <stop offset=".92" stop-color="#fbdfde" stop-opacity=".14"/>
      <stop offset="1" stop-color="#fff" stop-opacity="0"/>
    </linearGradient>
    <linearGradient id="_未命名的渐变_155" data-name="未命名的渐变 155" x1="6.52" y1="17.09" x2="30.65" y2="12.83" gradientUnits="userSpaceOnUse">
      <stop offset=".2" stop-color="#8f0108"/>
      <stop offset=".27" stop-color="#980009" stop-opacity=".89"/>
      <stop offset=".51" stop-color="#b9000c" stop-opacity=".51"/>
      <stop offset=".73" stop-color="#d1000f" stop-opacity=".23"/>
      <stop offset=".9" stop-color="#e00011" stop-opacity=".06"/>
      <stop offset="1" stop-color="#e60012" stop-opacity="0"/>
    </linearGradient>
    <linearGradient id="_未命名的渐变_503" data-name="未命名的渐变 503" x1="6.52" y1="17.09" x2="30.65" y2="12.83" gradientUnits="userSpaceOnUse">
      <stop offset="0" stop-color="#fff" stop-opacity=".5"/>
      <stop offset=".24" stop-color="#fff" stop-opacity="0"/>
    </linearGradient>
    <linearGradient id="_未命名的渐变_622" data-name="未命名的渐变 622" x1="49.68" y1="31.41" x2="73.19" y2="35.55" gradientUnits="userSpaceOnUse">
      <stop offset="0" stop-color="#f5c91f"/>
      <stop offset=".12" stop-color="#f0bf1f"/>
      <stop offset=".31" stop-color="#e6a71f"/>
      <stop offset=".56" stop-color="#d47f20"/>
      <stop offset=".85" stop-color="#bc4822"/>
      <stop offset="1" stop-color="#ae2823"/>
    </linearGradient>
    <linearGradient id="_未命名的渐变_165" data-name="未命名的渐变 165" x1="49.68" y1="31.41" x2="73.19" y2="35.55" gradientUnits="userSpaceOnUse">
      <stop offset="0" stop-color="#fdd000"/>
      <stop offset=".15" stop-color="#fbcc00"/>
      <stop offset=".27" stop-color="#f6c201"/>
      <stop offset=".38" stop-color="#eeb102"/>
      <stop offset=".49" stop-color="#e39904"/>
      <stop offset=".59" stop-color="#d47a06"/>
      <stop offset=".69" stop-color="#c25309"/>
      <stop offset=".79" stop-color="#ad270d"/>
      <stop offset=".85" stop-color="#9f0810"/>
    </linearGradient>
    <linearGradient id="_未命名的渐变_628" data-name="未命名的渐变 628" x1="49.68" y1="31.41" x2="73.19" y2="35.55" gradientUnits="userSpaceOnUse">
      <stop offset=".75" stop-color="#fff" stop-opacity="0"/>
      <stop offset=".79" stop-color="#fff" stop-opacity=".1"/>
      <stop offset=".85" stop-color="#fff" stop-opacity=".23"/>
      <stop offset=".9" stop-color="#fff" stop-opacity=".32"/>
      <stop offset=".96" stop-color="#fff" stop-opacity=".38"/>
      <stop offset="1" stop-color="#fff" stop-opacity=".4"/>
    </linearGradient>
    <linearGradient id="_未命名的渐变_147" data-name="未命名的渐变 147" x1="31.27" y1="58.88" x2="75.14" y2="6.59" gradientUnits="userSpaceOnUse">
      <stop offset=".74" stop-color="#e60012" stop-opacity="0"/>
      <stop offset=".77" stop-color="#df0011" stop-opacity=".08"/>
      <stop offset=".84" stop-color="#cd000f" stop-opacity=".28"/>
      <stop offset=".92" stop-color="#b0000b" stop-opacity=".61"/>
      <stop offset="1" stop-color="#8f0108"/>
    </linearGradient>
    <linearGradient id="_未命名的渐变_637" data-name="未命名的渐变 637" x1="16.44" y1="4.36" x2="84.23" y2="22.52" gradientUnits="userSpaceOnUse">
      <stop offset=".88" stop-color="#fff" stop-opacity="0"/>
      <stop offset=".9" stop-color="#fff" stop-opacity=".04"/>
      <stop offset=".93" stop-color="#fff" stop-opacity=".13"/>
      <stop offset=".97" stop-color="#fff" stop-opacity=".28"/>
      <stop offset="1" stop-color="#fff" stop-opacity=".4"/>
    </linearGradient>
    <linearGradient id="_未命名的渐变_203" data-name="未命名的渐变 203" x1="26.71" y1="50.09" x2="57.64" y2="-3.5" gradientUnits="userSpaceOnUse">
      <stop offset="0" stop-color="#7e0000"/>
      <stop offset=".01" stop-color="#840001" stop-opacity=".94"/>
      <stop offset=".07" stop-color="#9e0005" stop-opacity=".69"/>
      <stop offset=".14" stop-color="#b40009" stop-opacity=".47"/>
      <stop offset=".21" stop-color="#c7000c" stop-opacity=".3"/>
      <stop offset=".29" stop-color="#d5000f" stop-opacity=".16"/>
      <stop offset=".4" stop-color="#de0010" stop-opacity=".07"/>
      <stop offset=".55" stop-color="#e40011" stop-opacity=".01"/>
      <stop offset=".96" stop-color="#e60012" stop-opacity="0"/>
    </linearGradient>
    <linearGradient id="_未命名的渐变_680" data-name="未命名的渐变 680" x1="53.38" y1="16.15" x2="77.02" y2="29.8" gradientUnits="userSpaceOnUse">
      <stop offset=".22" stop-color="#fff" stop-opacity="0"/>
      <stop offset=".26" stop-color="#fff" stop-opacity=".11"/>
      <stop offset=".32" stop-color="#fff" stop-opacity=".25"/>
      <stop offset=".38" stop-color="#fff" stop-opacity=".36"/>
      <stop offset=".45" stop-color="#fff" stop-opacity=".44"/>
      <stop offset=".51" stop-color="#fff" stop-opacity=".48"/>
      <stop offset=".58" stop-color="#fff" stop-opacity=".5"/>
      <stop offset=".68" stop-color="#fff" stop-opacity=".49"/>
      <stop offset=".74" stop-color="#fff" stop-opacity=".46"/>
      <stop offset=".79" stop-color="#fff" stop-opacity=".4"/>
      <stop offset=".84" stop-color="#fff" stop-opacity=".32"/>
      <stop offset=".88" stop-color="#fff" stop-opacity=".21"/>
      <stop offset=".92" stop-color="#fff" stop-opacity=".09"/>
      <stop offset=".95" stop-color="#fff" stop-opacity="0"/>
    </linearGradient>
    <linearGradient id="_未命名的渐变_680-2" data-name="未命名的渐变 680" x1="3.76" y1="13.93" x2="25.04" y2="31.78" xlink:href="#_未命名的渐变_680"/>
    <linearGradient id="_未命名的渐变_91" data-name="未命名的渐变 91" x1="41.37" y1="27.59" x2="81.52" y2="27.59" gradientUnits="userSpaceOnUse">
      <stop offset="0" stop-color="#e60012"/>
      <stop offset=".32" stop-color="#d80c18"/>
      <stop offset=".6" stop-color="#c8161d" stop-opacity="0"/>
    </linearGradient>
    <linearGradient id="_未命名的渐变_182" data-name="未命名的渐变 182" x1="59.36" y1="43.21" x2="75.62" y2="15.05" gradientUnits="userSpaceOnUse">
      <stop offset="0" stop-color="#fdd000"/>
      <stop offset=".1" stop-color="#fbc901"/>
      <stop offset=".23" stop-color="#f5b805"/>
      <stop offset=".39" stop-color="#ec9c0b"/>
      <stop offset=".56" stop-color="#e07414"/>
      <stop offset=".73" stop-color="#d04220"/>
      <stop offset=".82" stop-color="#c82826"/>
    </linearGradient>
    <linearGradient id="_未命名的渐变_121" data-name="未命名的渐变 121" x1="41.37" y1="27.59" x2="81.52" y2="27.59" gradientUnits="userSpaceOnUse">
      <stop offset=".78" stop-color="#fdd000" stop-opacity="0"/>
      <stop offset=".85" stop-color="#f3ac0a" stop-opacity=".17"/>
      <stop offset="1" stop-color="#db5425" stop-opacity=".6"/>
    </linearGradient>
    <linearGradient id="_未命名的渐变_126" data-name="未命名的渐变 126" x1="53.79" y1="45.24" x2="79.94" y2="19.1" gradientUnits="userSpaceOnUse">
      <stop offset="0" stop-color="#b79200"/>
      <stop offset=".04" stop-color="#b89300" stop-opacity=".98"/>
      <stop offset=".08" stop-color="#bc9700" stop-opacity=".92"/>
      <stop offset=".12" stop-color="#c49d00" stop-opacity=".81"/>
      <stop offset=".16" stop-color="#cea600" stop-opacity=".67"/>
      <stop offset=".2" stop-color="#dbb200" stop-opacity=".48"/>
      <stop offset=".24" stop-color="#ebc000" stop-opacity=".25"/>
      <stop offset=".27" stop-color="#fdd000" stop-opacity="0"/>
    </linearGradient>
    <linearGradient id="_未命名的渐变_105" data-name="未命名的渐变 105" x1="41.37" y1="22.74" x2="81.52" y2="22.74" gradientUnits="userSpaceOnUse">
      <stop offset="0" stop-color="#fff5d7" stop-opacity=".5"/>
      <stop offset=".1" stop-color="#fff5d8" stop-opacity=".49"/>
      <stop offset=".19" stop-color="#fff6db" stop-opacity=".44"/>
      <stop offset=".27" stop-color="#fff7e1" stop-opacity=".37"/>
      <stop offset=".35" stop-color="#fff9e9" stop-opacity=".27"/>
      <stop offset=".43" stop-color="#fffcf3" stop-opacity=".15"/>
      <stop offset=".5" stop-color="#fff" stop-opacity="0"/>
    </linearGradient>
    <linearGradient id="_未命名的渐变_196" data-name="未命名的渐变 196" x1="10.28" y1="8.64" x2="22.83" y2="30.38" gradientUnits="userSpaceOnUse">
      <stop offset=".46" stop-color="#e60012" stop-opacity="0"/>
      <stop offset=".52" stop-color="#d1000f" stop-opacity=".24"/>
      <stop offset=".63" stop-color="#ad000b" stop-opacity=".65"/>
      <stop offset=".71" stop-color="#970008" stop-opacity=".9"/>
      <stop offset=".76" stop-color="#8f0108"/>
      <stop offset=".86" stop-color="#900008" stop-opacity=".99"/>
      <stop offset=".9" stop-color="#940008" stop-opacity=".94"/>
      <stop offset=".92" stop-color="#9b0009" stop-opacity=".86"/>
      <stop offset=".94" stop-color="#a5000a" stop-opacity=".74"/>
      <stop offset=".96" stop-color="#b3000c" stop-opacity=".58"/>
      <stop offset=".98" stop-color="#c3000e" stop-opacity=".39"/>
      <stop offset=".99" stop-color="#d60010" stop-opacity=".17"/>
      <stop offset="1" stop-color="#e60012" stop-opacity="0"/>
    </linearGradient>
    <linearGradient id="_未命名的渐变_201" data-name="未命名的渐变 201" x1="6.83" y1="10.68" x2="25.76" y2="29.61" gradientUnits="userSpaceOnUse">
      <stop offset=".7" stop-color="#fff" stop-opacity="0"/>
      <stop offset=".83" stop-color="#fff" stop-opacity=".2"/>
      <stop offset=".94" stop-color="#fff" stop-opacity=".35"/>
      <stop offset="1" stop-color="#fff" stop-opacity=".4"/>
    </linearGradient>
    <linearGradient id="_未命名的渐变_181" data-name="未命名的渐变 181" x1=".93" y1="23.26" x2="27.08" y2="8.16" gradientUnits="userSpaceOnUse">
      <stop offset=".21" stop-color="#c8161d" stop-opacity="0"/>
      <stop offset=".28" stop-color="#d23a17" stop-opacity=".2"/>
      <stop offset=".37" stop-color="#dd6111" stop-opacity=".41"/>
      <stop offset=".46" stop-color="#e7830b" stop-opacity=".59"/>
      <stop offset=".55" stop-color="#ef9f07" stop-opacity=".74"/>
      <stop offset=".64" stop-color="#f5b404" stop-opacity=".85"/>
      <stop offset=".73" stop-color="#f9c301" stop-opacity=".93"/>
      <stop offset=".82" stop-color="#fccc00" stop-opacity=".98"/>
      <stop offset=".9" stop-color="#fdd000"/>
    </linearGradient>
    <linearGradient id="_未命名的渐变_171" data-name="未命名的渐变 171" x1="3.87" y1="27.96" x2="24.34" y2="7.49" gradientUnits="userSpaceOnUse">
      <stop offset=".68" stop-color="#fdd108" stop-opacity="0"/>
      <stop offset=".8" stop-color="#fdd007" stop-opacity="0"/>
      <stop offset=".84" stop-color="#fdd007" stop-opacity=".03"/>
      <stop offset=".87" stop-color="#fdd007" stop-opacity=".08"/>
      <stop offset=".9" stop-color="#fdd006" stop-opacity=".15"/>
      <stop offset=".92" stop-color="#fdd006" stop-opacity=".24"/>
      <stop offset=".94" stop-color="#fdd005" stop-opacity=".34"/>
      <stop offset=".95" stop-color="#fdd004" stop-opacity=".47"/>
      <stop offset=".97" stop-color="#fdd003" stop-opacity=".62"/>
      <stop offset=".99" stop-color="#fdd001" stop-opacity=".79"/>
      <stop offset="1" stop-color="#fdd000" stop-opacity=".98"/>
      <stop offset="1" stop-color="#fdd000"/>
    </linearGradient>
  </defs>
  <g id="_图层_1-2" data-name="图层 1">
    <g>
      <g>
        <path class="cls-26" d="m78.62,35.63c2.64-3.72,3.54-8.41,2.45-12.84-.01-.05-.03-.09-.04-.14-.01-.05-.03-.09-.04-.14-.03-.09-.06-.19-.09-.28-.06-.19-.12-.37-.19-.55-.03-.09-.07-.18-.1-.27-.06-.15-.12-.3-.18-.44-.02-.06-.05-.11-.07-.17,0-.02-.02-.04-.03-.06-.03-.07-.06-.14-.1-.21-.01-.04-.03-.07-.05-.11-.02-.04-.03-.07-.05-.11-.05-.1-.1-.2-.15-.29-.02-.05-.04-.09-.07-.13-.04-.07-.07-.14-.11-.21-.06-.1-.12-.21-.18-.31,0,0,0-.02-.01-.02-.1-.16-.2-.32-.3-.48-.03-.04-.06-.09-.09-.13-.1-.15-.2-.29-.3-.44,0-.01-.01-.02-.03-.03-.1-.14-.21-.28-.32-.42-.11-.14-.23-.29-.35-.42-.12-.14-.24-.27-.36-.41-.08-.09-.16-.17-.24-.25-.06-.07-.12-.13-.19-.19-.06-.07-.13-.13-.2-.19-.07-.07-.14-.13-.21-.2-.06-.06-.12-.11-.19-.17-.09-.09-.19-.17-.29-.25-.37-.31-.76-.6-1.16-.86-.19-.13-.38-.25-.58-.36-.22-.13-.44-.25-.66-.37-.11-.06-.21-.11-.32-.16-.11-.05-.22-.11-.33-.15-.22-.1-.44-.2-.67-.28-.11-.05-.23-.09-.34-.13,0,0-.01,0-.02,0-.05-.02-.1-.04-.15-.05-.06-.02-.11-.04-.17-.06-.1-.03-.2-.07-.3-.1-.02,0-.03-.01-.05-.01-.07-.02-.14-.04-.21-.06-.05-.02-.11-.03-.16-.05-.09-.03-.18-.05-.27-.07-.04-.01-.08-.02-.12-.03-.1-.02-.2-.05-.29-.07-.22-.05-.45-.09-.68-.13-.21-.04-.43-.07-.64-.09-.1-.01-.2-.02-.3-.03-.08,0-.16-.02-.24-.02-.03,0-.05,0-.08,0-.07,0-.14-.01-.21-.02-.03,0-.05,0-.07,0h-.03c-.09,0-.17,0-.26-.01-.02,0-.05,0-.07,0-.12,0-.23,0-.35,0-.97,0-1.96.1-2.95.32-.03,0-.05.01-.08.02-.16.04-.32.08-.47.13-.16.04-.31.09-.47.14-.14.04-.27.09-.41.13-.08.03-.17.06-.25.09-.09.03-.18.06-.28.1,0,0-.01,0-.02,0-.11.04-.21.08-.31.12-.05.02-.1.04-.14.06-.07.03-.14.06-.2.08-.06.03-.12.05-.18.08-.15.06-.3.13-.45.2-.15.07-.3.14-.45.21-.01,0-.02.01-.04.02-.14.07-.27.13-.41.2-.14.07-.28.15-.42.22-.09.05-.17.09-.26.14-.09.05-.17.1-.26.15-.12.07-.23.13-.34.2-.08.05-.16.1-.24.15-.11.07-.23.15-.34.22-.09.06-.18.12-.27.18-.14.09-.27.18-.4.28-.13.1-.27.2-.4.3-2.44,1.91-4.7,4.05-6.72,6.4-3.17,3.41-6.41,6.75-9.7,10.03,0,0,0,0,0,0-.49.42-.99.84-1.48,1.26-2.95,2.33-6.17,4.3-9.58,5.88-5.3,2.3-11.17,2.92-16.84,1.77C5.83,39.68.38,32.92,0,25.01c0-4.56,1.72-8.92,4.76-12.24-3.34,3.85-4.07,9.32-1.85,13.91,2.11,4.1,6.44,6.56,11.04,6.29,3.51-.17,6.91-1.27,9.85-3.2,3.15-2.04,6.09-4.38,8.78-6.99.76-.8,1.52-1.6,2.29-2.39,1.93-1.99,3.88-3.96,5.86-5.9,2.8-2.72,5.84-5.16,9.1-7.31,4.06-2.54,8.74-3.94,13.53-4.03,5.3-.15,10.43,1.86,14.23,5.55,3.8,3.7,5.94,8.78,5.93,14.08-.07,4.9-1.9,9.38-4.9,12.84Z"/>
        <path class="cls-8" d="m83.52,22.79c0-5.3-2.13-10.38-5.93-14.08-3.8-3.7-8.93-5.7-14.23-5.55-1.85.04-3.68.27-5.46.68v12.48c.1-.07.2-.15.3-.22.13-.09.26-.19.4-.28.09-.06.18-.12.27-.18.11-.08.23-.15.34-.22.08-.05.16-.1.24-.15.11-.07.23-.14.34-.2.08-.05.17-.1.26-.15.08-.05.17-.1.26-.14.14-.08.28-.15.42-.22.13-.07.27-.14.41-.2.01,0,.02-.01.04-.02.15-.07.3-.14.45-.21.15-.07.3-.13.45-.2.06-.03.12-.05.18-.08.07-.03.14-.05.2-.08.05-.02.1-.04.14-.06.1-.04.21-.08.31-.12,0,0,.01,0,.02,0,.09-.03.18-.07.28-.1.08-.03.17-.06.25-.09.14-.05.27-.09.41-.13.15-.05.31-.1.47-.14.16-.05.31-.09.47-.13.03,0,.05-.01.08-.02.99-.22,1.98-.32,2.95-.32.12,0,.23,0,.35,0,.02,0,.04,0,.07,0,.09,0,.17,0,.26.01h.03s.05,0,.07,0c.07,0,.14,0,.21.02.03,0,.05,0,.08,0,.08,0,.16.01.24.02.1,0,.2.02.3.03.22.03.43.06.64.09.23.04.45.08.68.13.1.02.2.04.29.07.04,0,.08.02.12.03.09.02.18.05.27.07.06.01.11.03.16.05.07.02.14.04.21.06.02,0,.03,0,.05.01.1.03.2.06.3.1.06.02.11.04.17.06.05.01.1.03.15.05,0,0,.01,0,.02,0,.11.04.23.08.34.13.23.09.45.18.67.28.11.05.22.1.33.15.11.05.22.11.32.16.23.12.45.24.66.37.2.11.39.23.58.36.4.26.79.55,1.16.86.1.08.2.16.29.25.06.05.12.11.19.17.07.06.14.13.21.2.07.06.13.12.2.19.07.06.13.12.19.19.08.08.17.17.24.25.13.13.25.27.36.41.12.14.24.28.35.42.11.14.22.27.32.42.01.01.02.02.03.03.11.14.21.29.3.44.03.04.06.09.09.13.1.16.2.32.3.48,0,0,.01.01.01.02.06.1.12.2.18.31.04.07.08.14.11.21.03.04.05.09.07.13.05.09.1.19.15.29.02.03.04.07.05.11.02.03.04.07.05.11.03.07.07.14.1.21,0,.02.02.04.03.06.03.06.05.12.07.17.06.15.12.29.18.44.04.09.07.18.1.27.07.18.13.37.19.55.03.09.06.19.09.28.01.05.03.09.04.14.01.05.03.09.04.14,1.09,4.43.2,9.12-2.45,12.84,3-3.46,4.83-7.94,4.9-12.84Z"/>
        <path class="cls-23" d="m30.93,15.58c-.14.12-.33.14-.49.05-.77-.5-1.56-.97-2.37-1.39-1.72-.91-3.53-1.64-5.4-2.19-2.83-.71-5.8-.68-8.62.11-4.47,1.5-7.21,5.98-6.51,10.64-1.25-5.51,1.84-11.09,7.18-12.95,2.79-.8,5.74-.82,8.54-.05,3.07.94,5.78,2.79,7.78,5.31.07.17.02.36-.11.48Z"/>
        <path class="cls-13" d="m30.93,15.58c-.14.12-.33.14-.49.05-.77-.5-1.56-.97-2.37-1.39-1.72-.91-3.53-1.64-5.4-2.19-2.83-.71-5.8-.68-8.62.11-4.47,1.5-7.21,5.98-6.51,10.64-1.25-5.51,1.84-11.09,7.18-12.95,2.79-.8,5.74-.82,8.54-.05,3.07.94,5.78,2.79,7.78,5.31.07.17.02.36-.11.48Z"/>
        <path class="cls-14" d="m30.93,15.58c-.14.12-.33.14-.49.05-.77-.5-1.56-.97-2.37-1.39-1.72-.91-3.53-1.64-5.4-2.19-2.83-.71-5.8-.68-8.62.11-4.47,1.5-7.21,5.98-6.51,10.64-1.25-5.51,1.84-11.09,7.18-12.95,2.79-.8,5.74-.82,8.54-.05,3.07.94,5.78,2.79,7.78,5.31.07.17.02.36-.11.48Z"/>
        <path class="cls-9" d="m30.93,15.58c-.14.12-.33.14-.49.05-.77-.5-1.56-.97-2.37-1.39-1.72-.91-3.53-1.64-5.4-2.19-2.83-.71-5.8-.68-8.62.11-4.47,1.5-7.21,5.98-6.51,10.64-1.25-5.51,1.84-11.09,7.18-12.95,2.79-.8,5.74-.82,8.54-.05,3.07.94,5.78,2.79,7.78,5.31.07.17.02.36-.11.48Z"/>
        <path class="cls-27" d="m74.33,28.74c0,.13-.02.26-.03.39,0,.05,0,.09-.02.14-.02.16-.04.32-.07.48-.05.31-.11.62-.19.94-.08.32-.17.64-.27.95-1.48,3.74-4.53,6.64-8.34,7.91-3.94,1.19-8.19.73-11.78-1.29-1.61-.92-3.11-2.04-4.44-3.34-.12-.18-.09-.41.06-.56.16-.14.4-.14.56,0,2.49,1.81,5.3,3.14,8.29,3.9,3.75.78,7.65.16,10.97-1.75,2.89-1.61,4.84-4.5,5.26-7.77Z"/>
        <path class="cls-3" d="m74.33,28.74c0,.13-.02.26-.03.39,0,.05,0,.09-.02.14-.02.16-.04.32-.07.48-.05.31-.11.62-.19.94-.08.32-.17.64-.27.95-1.48,3.74-4.53,6.64-8.34,7.91-3.94,1.19-8.19.73-11.78-1.29-1.61-.92-3.11-2.04-4.44-3.34-.12-.18-.09-.41.06-.56.16-.14.4-.14.56,0,2.49,1.81,5.3,3.14,8.29,3.9,3.75.78,7.65.16,10.97-1.75,2.89-1.61,4.84-4.5,5.26-7.77Z"/>
        <path class="cls-15" d="m74.33,28.74c0,.13-.02.26-.03.39,0,.05,0,.09-.02.14-.02.16-.04.32-.07.48-.05.31-.11.62-.19.94-.08.32-.17.64-.27.95-1.48,3.74-4.53,6.64-8.34,7.91-3.94,1.19-8.19.73-11.78-1.29-1.61-.92-3.11-2.04-4.44-3.34-.12-.18-.09-.41.06-.56.16-.14.4-.14.56,0,2.49,1.81,5.3,3.14,8.29,3.9,3.75.78,7.65.16,10.97-1.75,2.89-1.61,4.84-4.5,5.26-7.77Z"/>
        <path class="cls-4" d="m74.33,28.74c0,.13-.02.26-.03.39,0,.05,0,.09-.02.14-.02.16-.04.32-.07.48-.05.31-.11.62-.19.94-.08.32-.17.64-.27.95-1.48,3.74-4.53,6.64-8.34,7.91-3.94,1.19-8.19.73-11.78-1.29-1.61-.92-3.11-2.04-4.44-3.34-.12-.18-.09-.41.06-.56.16-.14.4-.14.56,0,2.49,1.81,5.3,3.14,8.29,3.9,3.75.78,7.65.16,10.97-1.75,2.89-1.61,4.84-4.5,5.26-7.77Z"/>
        <path class="cls-10" d="m83.52,22.79c0-5.3-2.13-10.38-5.93-14.08-3.8-3.7-8.93-5.7-14.23-5.55-4.79.09-9.47,1.49-13.53,4.03-3.25,2.15-6.3,4.6-9.1,7.31-.14.14-.28.28-.42.42v18.81c.35-.3.71-.6,1.06-.9,0,0,0,0,0,0,3.3-3.28,6.53-6.62,9.7-10.03,2.02-2.35,4.27-4.49,6.72-6.4.13-.1.26-.2.4-.3.13-.09.26-.19.4-.28.09-.06.18-.12.27-.18.11-.08.23-.15.34-.22.08-.05.16-.1.24-.15.11-.07.23-.14.34-.2.08-.05.17-.1.26-.15.08-.05.17-.1.26-.14.14-.08.28-.15.42-.22.13-.07.27-.14.41-.2.01,0,.02-.01.04-.02.15-.07.3-.14.45-.21.15-.07.3-.13.45-.2.06-.03.12-.05.18-.08.07-.03.14-.05.2-.08.05-.02.1-.04.14-.06.1-.04.21-.08.31-.12,0,0,.01,0,.02,0,.09-.03.18-.07.28-.1.08-.03.17-.06.25-.09.14-.05.27-.09.41-.13.15-.05.31-.1.47-.14.16-.05.31-.09.47-.13.03,0,.05-.01.08-.02.99-.22,1.98-.32,2.95-.32.12,0,.23,0,.35,0,.02,0,.04,0,.07,0,.09,0,.17,0,.26.01h.03s.05,0,.07,0c.07,0,.14,0,.21.02.03,0,.05,0,.08,0,.08,0,.16.01.24.02.1,0,.2.02.3.03.22.03.43.06.64.09.23.04.45.08.68.13.1.02.2.04.29.07.04,0,.08.02.12.03.09.02.18.05.27.07.06.01.11.03.16.05.07.02.14.04.21.06.02,0,.03,0,.05.01.1.03.2.06.3.1.06.02.11.04.17.06.05.01.1.03.15.05,0,0,.01,0,.02,0,.11.04.23.08.34.13.23.09.45.18.67.28.11.05.22.1.33.15.11.05.22.11.32.16.23.12.45.24.66.37.2.11.39.23.58.36.4.26.79.55,1.16.86.1.08.2.16.29.25.06.05.12.11.19.17.07.06.14.13.21.2.07.06.13.12.2.19.07.06.13.12.19.19.08.08.17.17.24.25.13.13.25.27.36.41.12.14.24.28.35.42.11.14.22.27.32.42.01.01.02.02.03.03.11.14.21.29.3.44.03.04.06.09.09.13.1.16.2.32.3.48,0,0,.01.01.01.02.06.1.12.2.18.31.04.07.08.14.11.21.03.04.05.09.07.13.05.09.1.19.15.29.02.03.04.07.05.11.02.03.04.07.05.11.03.07.07.14.1.21,0,.02.02.04.03.06.03.06.05.12.07.17.06.15.12.29.18.44.04.09.07.18.1.27.07.18.13.37.19.55.03.09.06.19.09.28.01.05.03.09.04.14.01.05.03.09.04.14,1.09,4.43.2,9.12-2.45,12.84,3-3.46,4.83-7.94,4.9-12.84Z"/>
        <path class="cls-5" d="m83.52,22.79c0-5.3-2.13-10.38-5.93-14.08-3.8-3.7-8.93-5.7-14.23-5.55-3.92.08-7.76,1.02-11.25,2.76v15.73c1.75-1.9,3.65-3.66,5.69-5.25.13-.1.26-.2.4-.3.13-.09.26-.19.4-.28.09-.06.18-.12.27-.18.11-.08.23-.15.34-.22.08-.05.16-.1.24-.15.11-.07.23-.14.34-.2.08-.05.17-.1.26-.15.08-.05.17-.1.26-.14.14-.08.28-.15.42-.22.13-.07.27-.14.41-.2.01,0,.02-.01.04-.02.15-.07.3-.14.45-.21.15-.07.3-.13.45-.2.06-.03.12-.05.18-.08.07-.03.14-.05.2-.08.05-.02.1-.04.14-.06.1-.04.21-.08.31-.12,0,0,.01,0,.02,0,.09-.03.18-.07.28-.1.08-.03.17-.06.25-.09.14-.05.27-.09.41-.13.15-.05.31-.1.47-.14.16-.05.31-.09.47-.13.03,0,.05-.01.08-.02.99-.22,1.98-.32,2.95-.32.12,0,.23,0,.35,0,.02,0,.04,0,.07,0,.09,0,.17,0,.26.01h.03s.05,0,.07,0c.07,0,.14,0,.21.02.03,0,.05,0,.08,0,.08,0,.16.01.24.02.1,0,.2.02.3.03.22.03.43.06.64.09.23.04.45.08.68.13.1.02.2.04.29.07.04,0,.08.02.12.03.09.02.18.05.27.07.06.01.11.03.16.05.07.02.14.04.21.06.02,0,.03,0,.05.01.1.03.2.06.3.1.06.02.11.04.17.06.05.01.1.03.15.05,0,0,.01,0,.02,0,.11.04.23.08.34.13.23.09.45.18.67.28.11.05.22.1.33.15.11.05.22.11.32.16.23.12.45.24.66.37.2.11.39.23.58.36.4.26.79.55,1.16.86.1.08.2.16.29.25.06.05.12.11.19.17.07.06.14.13.21.2.07.06.13.12.2.19.07.06.13.12.19.19.08.08.17.17.24.25.13.13.25.27.36.41.12.14.24.28.35.42.11.14.22.27.32.42.01.01.02.02.03.03.11.14.21.29.3.44.03.04.06.09.09.13.1.16.2.32.3.48,0,0,.01.01.01.02.06.1.12.2.18.31.04.07.08.14.11.21.03.04.05.09.07.13.05.09.1.19.15.29.02.03.04.07.05.11.02.03.04.07.05.11.03.07.07.14.1.21,0,.02.02.04.03.06.03.06.05.12.07.17.06.15.12.29.18.44.04.09.07.18.1.27.07.18.13.37.19.55.03.09.06.19.09.28.01.05.03.09.04.14.01.05.03.09.04.14,1.09,4.43.2,9.12-2.45,12.84,3-3.46,4.83-7.94,4.9-12.84Z"/>
        <path class="cls-17" d="m78.62,35.63c2.64-3.72,3.54-8.41,2.45-12.84-.01-.05-.03-.09-.04-.14-.01-.05-.03-.09-.04-.14-.03-.09-.06-.19-.09-.28-.06-.19-.12-.37-.19-.55-.03-.09-.07-.18-.1-.27-.06-.15-.12-.3-.18-.44-.02-.06-.05-.11-.07-.17,0-.02-.02-.04-.03-.06-.03-.07-.06-.14-.1-.21-.01-.04-.03-.07-.05-.11-.02-.04-.03-.07-.05-.11-.05-.1-.1-.2-.15-.29-.02-.05-.04-.09-.07-.13-.04-.07-.07-.14-.11-.21-.06-.1-.12-.21-.18-.31,0,0,0-.02-.01-.02-.1-.16-.2-.32-.3-.48-.03-.04-.06-.09-.09-.13-.1-.15-.2-.29-.3-.44,0-.01-.01-.02-.03-.03-.1-.14-.21-.28-.32-.42-.11-.14-.23-.29-.35-.42-.12-.14-.24-.27-.36-.41-.08-.09-.16-.17-.24-.25-.06-.07-.12-.13-.19-.19-.06-.07-.13-.13-.2-.19-.07-.07-.14-.13-.21-.2-.06-.06-.12-.11-.19-.17-.09-.09-.19-.17-.29-.25-.37-.31-.76-.6-1.16-.86-.19-.13-.38-.25-.58-.36-.22-.13-.44-.25-.66-.37-.11-.06-.21-.11-.32-.16-.11-.05-.22-.11-.33-.15-.22-.1-.44-.2-.67-.28-.11-.05-.23-.09-.34-.13,0,0-.01,0-.02,0-.05-.02-.1-.04-.15-.05-.06-.02-.11-.04-.17-.06-.1-.03-.2-.07-.3-.1-.02,0-.03-.01-.05-.01-.07-.02-.14-.04-.21-.06-.05-.02-.11-.03-.16-.05-.09-.03-.18-.05-.27-.07-.04-.01-.08-.02-.12-.03-.1-.02-.2-.05-.29-.07-.22-.05-.45-.09-.68-.13-.21-.04-.43-.07-.64-.09-.1-.01-.2-.02-.3-.03-.08,0-.16-.02-.24-.02-.03,0-.05,0-.08,0-.07,0-.14-.01-.21-.02-.03,0-.05,0-.07,0h-.03c-.09,0-.17,0-.26-.01-.02,0-.05,0-.07,0-.12,0-.23,0-.35,0-.97,0-1.96.1-2.95.32-.03,0-.05.01-.08.02-.16.04-.32.08-.47.13-.16.04-.31.09-.47.14-.14.04-.27.09-.41.13-.08.03-.17.06-.25.09-.09.03-.18.06-.28.1,0,0-.01,0-.02,0-.11.04-.21.08-.31.12-.05.02-.1.04-.14.06-.07.03-.14.06-.2.08-.06.03-.12.05-.18.08-.15.06-.3.13-.45.2-.15.07-.3.14-.45.21-.01,0-.02.01-.04.02-.14.07-.27.13-.41.2-.14.07-.28.15-.42.22-.09.05-.17.09-.26.14-.09.05-.17.1-.26.15-.12.07-.23.13-.34.2-.08.05-.16.1-.24.15-.11.07-.23.15-.34.22-.09.06-.18.12-.27.18-.14.09-.27.18-.4.28-.13.1-.27.2-.4.3-2.44,1.91-4.7,4.05-6.72,6.4-3.17,3.41-6.41,6.75-9.7,10.03,0,0,0,0,0,0-.49.42-.99.84-1.48,1.26-2.95,2.33-6.17,4.3-9.58,5.88-5.3,2.3-11.17,2.92-16.84,1.77C5.83,39.68.38,32.92,0,25.01c0-4.56,1.72-8.92,4.76-12.24-3.34,3.85-4.07,9.32-1.85,13.91,2.11,4.1,6.44,6.56,11.04,6.29,3.51-.17,6.91-1.27,9.85-3.2,3.15-2.04,6.09-4.38,8.78-6.99.76-.8,1.52-1.6,2.29-2.39,1.93-1.99,3.88-3.96,5.86-5.9,2.8-2.72,5.84-5.16,9.1-7.31,4.06-2.54,8.74-3.94,13.53-4.03,5.3-.15,10.43,1.86,14.23,5.55,3.8,3.7,5.94,8.78,5.93,14.08-.07,4.9-1.9,9.38-4.9,12.84Z"/>
        <g>
          <path class="cls-6" d="m81.07,22.79c-.07-.19-.13-.38-.21-.57l-.11-.28-.06-.14s-.04-.09-.06-.14l-.12-.27-.13-.27-.06-.13-.07-.14-.14-.27h0s-.05-.1-.05-.1h0s-.14-.26-.14-.26l-.15-.25-.15-.25-.16-.25-.02-.05s.02.05.04.06l-.03-.04-.17-.25-.09-.13-.04-.06-.04-.06-.38-.5-.02-.03s0,.02.02.03l-.03-.03-.24-.28c-.08-.09-.16-.19-.25-.28l-.13-.14-.06-.07-.06-.06-.26-.27-.06-.06-.07-.07-.14-.13-.27-.25-.14-.13-.13-.12-.29-.24h0s-.23-.19-.23-.19c-.08-.07-.17-.13-.25-.19-.16-.12-.33-.24-.5-.36l-.26-.17c-.08-.05-.18-.11-.26-.16l-.27-.16-.14-.08-.07-.04-.03-.02h0s-.02-.02.02,0h0s0,0,0,0h0s-.02-.01-.02-.01l-.56-.3-.07-.04-.06-.03-.14-.07-.13-.06-.15-.06-.15-.06-.13-.05-.3-.12-.15-.06-.07-.03-.06-.02-.3-.11.05.02h-.02s-.06-.03-.06-.03l-.11-.04h-.03s-.24-.09-.24-.09l-.13-.04-.07-.02h-.02s0,0,0,0c.03,0-.06-.01.06.01h0s0,0,0,0h0s0,0,0,0h0s-.03-.01-.03-.01h-.05c-.11-.04-.23-.08-.35-.11l-.35-.09-.18-.04-.09-.02h-.08s-.38-.08-.38-.08l-.19-.03h-.05s-.01-.01-.01-.01h0s.01,0,.02,0h0s0,0,0,0h0s-.02,0-.02,0h-.09s-.38-.06-.38-.06h-.09s-.08-.02-.08-.02l-.19-.02h-.18s-.1-.02-.1-.02h-.01s0,0,0,0c0,0,.05,0,.03,0h0s0,0,0,0h-.02s-.05,0-.05,0h-.03s-.28-.02-.28-.02h.04s-.25,0-.25,0h-.1s-.12,0-.12,0h-.23s-.23,0-.23,0c-.3,0-.6.02-.9.05-.3.03-.6.06-.9.11-.15.02-.3.05-.44.08l-.22.05-.11.02h-.03s0,0,0,0c-.03,0,.04-.01.03,0h0s0,0,0,0h0s-.01,0-.01,0l-.06.02h-.02s-.45.13-.45.13l-.45.14-.45.15-.46.16-.05.02h-.02s.05,0,.05,0l-.22.08-.1.04-.11.04-.22.09-.22.09-.22.1-.11.05-.1.04-.46.21h.03c-.17.07-.34.15-.51.24l-.26.14-.25.14-.5.29-.12.07-.13.08-.24.15-.24.15-.24.16-.25.17-.12.08-.11.08-.24.17c-.06.04-.15.12-.23.17l-.46.36c-.31.24-.61.49-.91.73-.3.25-.6.5-.9.75-.59.51-1.18,1.03-1.75,1.57-.29.27-.57.54-.85.82-.28.27-.56.55-.83.83-.27.28-.54.57-.81.85l-.1.11c-.05.05-.07.08-.11.11l-.21.21-.42.41c-.57.55-1.13,1.11-1.7,1.65-.57.55-1.15,1.09-1.72,1.63.51-.61,1.02-1.21,1.53-1.81.51-.6,1.03-1.2,1.55-1.79.25-.3.53-.6.77-.89.25-.31.51-.61.76-.92.52-.6,1.05-1.2,1.6-1.77.55-.57,1.12-1.13,1.7-1.68.29-.27.59-.54.89-.8.3-.26.6-.52.91-.78l.46-.38c.08-.07.14-.12.24-.19l.23-.18.13-.1.12-.09.24-.17.25-.17.25-.17.26-.17.13-.08.14-.08.52-.31.26-.15.26-.14c.17-.1.36-.19.55-.28h.03s.41-.21.41-.21l.12-.05.11-.05.22-.1.23-.1.23-.09.11-.05.13-.05.23-.09.05-.02h.03s-.05,0-.05,0l.46-.17.47-.16.49-.14.49-.13h-.02s.06-.01.06-.01l.06-.02h.03s.12-.03.12-.03l.24-.05c.16-.03.32-.06.48-.08.32-.05.64-.09.97-.11.32-.03.65-.04.97-.05h.24s.24,0,.24,0h.12s.13,0,.13,0h.21s.04.01.04.01l.29.02h-.03s.12,0,.12,0h.09s.19.03.19.03l.19.02.11.02h.09s.38.07.38.07h.09s.07.03.07.03h.05s.19.05.19.05l.37.08.11.02.09.02.19.05.39.11c.12.03.25.07.38.12h-.05s.03,0,.03,0l.07.02h.02s.06.03.06.03l.13.04.28.1h-.03s.18.05.18.05l-.06-.02h.02s.05.03.05.03l.3.12.09.04.07.03.15.06.29.13.16.07.14.07.14.07.15.08.14.07.08.05.07.04.55.32.05.03.03.02.07.04.13.09.27.17c.1.06.18.12.27.19l.26.19c.17.13.35.27.51.41.08.07.17.14.24.21l.25.23h0s.28.26.28.26l.15.14.13.14.27.29.13.14.06.07.07.08.25.29.07.08.06.08.12.15c.08.1.15.2.23.31l.23.32-.03-.03s.05.06.07.1l-.02-.03.34.53.04.07.04.07.08.14.16.28-.03-.04s.05.07.06.11l-.02-.05.14.26.07.13.07.13.12.27.06.13.06.15h0s.05.11.05.11h0s.11.28.11.28l.05.14.05.15.1.29s.03.1.05.15l.05.14s.03.1.04.15l.04.15.08.29c.05.2.1.39.14.59Z"/>
          <path class="cls-2" d="m4.76,12.77s-.11.16-.33.46c-.11.15-.24.33-.38.56-.07.11-.14.23-.22.36-.04.06-.08.13-.12.2-.04.07-.08.14-.12.22-.16.3-.34.63-.49,1.01-.17.37-.32.78-.48,1.23-.28.89-.51,1.93-.6,3.07-.08,1.14-.01,2.39.26,3.66.04.16.06.32.11.48.05.16.09.32.14.48.08.32.22.63.33.95.03.08.06.16.09.24l.11.23c.07.16.14.31.21.47l.03.06v.03s.02.01.02.01c0,.01-.02-.04,0-.01l.07.12.14.24c.09.15.18.32.28.46.2.28.38.57.61.85.11.14.22.28.34.42.12.13.24.26.37.4.5.52,1.05,1.01,1.65,1.43,1.19.86,2.59,1.47,4.04,1.81.37.07.73.16,1.1.19.37.06.74.07,1.11.09.19,0,.37,0,.56,0,.19,0,.36,0,.56-.02.39-.02.76-.06,1.13-.09,1.49-.18,2.94-.5,4.29-.97,1.35-.48,2.61-1.06,3.74-1.75,1.14-.69,2.19-1.38,3.15-2.05,1.92-1.33,3.45-2.54,4.5-3.41.52-.44.94-.78,1.21-1.02.28-.24.43-.37.43-.37,0,0-.13.14-.38.41-.25.27-.62.66-1.11,1.14-.98.96-2.42,2.3-4.28,3.75-.93.72-1.96,1.49-3.09,2.23-1.14.76-2.44,1.43-3.84,1.96-1.41.52-2.92.92-4.49,1.11-.4.05-.8.09-1.18.11-.19.02-.4.02-.6.03-.2,0-.41.02-.61,0-.41-.02-.81-.03-1.22-.09-.41-.04-.81-.12-1.21-.2-1.59-.38-3.11-1.06-4.4-2.01-.33-.23-.63-.49-.94-.75-.15-.13-.29-.28-.43-.41-.14-.14-.28-.27-.41-.43-.13-.15-.26-.3-.39-.44-.13-.15-.24-.31-.36-.46-.24-.3-.44-.64-.66-.97-.11-.16-.18-.32-.27-.48l-.13-.24-.07-.12s-.02-.04-.02-.04v-.02s-.02-.03-.02-.03l-.03-.06c-.07-.17-.14-.34-.22-.51l-.11-.25c-.03-.09-.06-.17-.09-.26-.11-.35-.24-.69-.31-1.03-.04-.17-.09-.34-.13-.51-.04-.17-.06-.34-.1-.51-.25-1.36-.24-2.69-.09-3.87.15-1.19.47-2.25.83-3.15.2-.44.37-.86.58-1.22.19-.37.4-.69.59-.98.05-.07.09-.14.14-.21.05-.07.1-.13.14-.19.09-.12.18-.24.26-.34.16-.22.31-.38.43-.52.24-.27.37-.42.37-.42Z"/>
        </g>
        <path class="cls-22" d="m78.62,35.63s0,0,0,0c-3.38,3.9-8.25,6.48-13.76,6.86-4.36.24-8.66-1.06-12.15-3.68-1.4-1.08-2.6-2.4-3.53-3.89,1.33,1.3,2.82,2.42,4.44,3.34,3.59,2.02,7.84,2.48,11.78,1.29,3.81-1.28,6.87-4.17,8.34-7.91.11-.32.2-.63.27-.95.08-.31.14-.62.19-.94.03-.16.05-.32.07-.48,0-.05.01-.09.02-.14.01-.13.03-.26.03-.39.02-.3.03-.6.03-.9v-.09c-.02-2.84-1.04-5.63-2.96-7.83-.05-.05-.09-.1-.14-.14-.02-.02-.04-.04-.06-.06-.03-.03-.06-.06-.08-.08,0,0-.02-.02-.02-.02t0,0c-.1-.09-.19-.18-.29-.27-2.96-2.66-7.2-3.47-10.96-2.02-2.76,1.34-5.28,3.13-7.44,5.3-3.55,3.54-7.23,6.94-11.03,10.21,3.3-3.28,6.53-6.62,9.7-10.03,2.02-2.35,4.27-4.49,6.72-6.4.13-.1.26-.2.4-.3.13-.09.26-.19.4-.28.09-.06.18-.12.27-.18.11-.08.23-.15.34-.22.08-.05.16-.1.24-.15.11-.07.23-.14.34-.2.08-.05.17-.1.26-.15.08-.05.17-.1.26-.14.14-.08.28-.15.42-.22.14-.07.27-.14.41-.2.01,0,.02-.01.04-.02.15-.07.3-.14.45-.21.15-.07.3-.13.45-.2.06-.03.12-.05.18-.08.07-.03.14-.05.2-.08.05-.02.1-.04.14-.06.1-.04.21-.08.31-.12,0,0,.01,0,.02,0,.09-.03.18-.07.28-.1.08-.03.17-.06.25-.09.14-.05.27-.09.41-.13.15-.05.31-.09.47-.14.16-.05.31-.09.47-.13.03,0,.05-.02.08-.02.99-.22,1.98-.32,2.95-.32.12,0,.23,0,.35,0,.02,0,.04,0,.07,0,.09,0,.17,0,.26.01.03,0,.06,0,.1,0,.07,0,.14,0,.21.02.11,0,.21.02.32.03.1,0,.2.02.3.03.22.03.43.06.64.09.23.04.45.08.68.13.1.02.2.04.29.07.04,0,.08.02.12.03.09.02.18.05.27.07.06.01.11.03.16.05.07.02.14.04.21.06.02,0,.03,0,.05.01.1.03.2.06.3.1.06.02.11.04.17.06.05.01.1.03.15.05,0,0,.01,0,.02,0,.11.04.23.08.34.13.07.03.14.06.21.09.09.04.18.08.27.11.06.03.12.05.18.08.11.05.22.1.33.15.11.05.22.11.32.16.12.06.24.13.35.19.11.06.21.12.31.18.1.06.21.12.31.19.09.06.18.11.27.17.1.07.2.14.3.2,0,0,.02.01.03.02.1.07.2.14.29.21.1.07.19.14.29.22.09.07.18.14.26.21.1.08.2.16.29.25.06.05.13.11.19.17.07.06.14.13.21.2.07.06.13.12.2.19.06.06.13.13.19.19.08.08.17.17.24.25.13.13.25.27.36.41.12.14.24.28.35.42.11.14.21.27.32.42.01.01.02.02.03.03.11.14.21.29.3.44.03.04.06.09.09.13.02.03.04.07.06.1.03.04.05.08.08.13.05.08.11.17.16.25,0,0,.01.02.01.02.06.1.12.2.18.31.04.07.08.14.11.21.02.04.05.09.07.13.05.09.1.19.15.29.02.03.04.07.05.11.02.03.04.07.05.11.03.07.07.14.1.21,0,.02.02.04.03.06.03.06.05.12.07.17.06.15.12.29.18.44.04.09.07.18.1.27.07.18.13.37.19.55.03.09.06.19.09.28.01.05.03.09.04.14.01.05.03.09.04.14,1.09,4.43.2,9.12-2.45,12.84Z"/>
        <path class="cls-1" d="m78.62,35.63s0,0,0,0c-3.38,3.9-8.25,6.48-13.76,6.86-4.36.24-8.66-1.06-12.15-3.68-1.4-1.08-2.6-2.4-3.53-3.89,1.33,1.3,2.82,2.42,4.44,3.34,3.59,2.02,7.84,2.48,11.78,1.29,3.81-1.28,6.87-4.17,8.34-7.91.11-.32.2-.63.27-.95.08-.31.14-.62.19-.94.03-.16.05-.32.07-.48,0-.05.01-.09.02-.14.01-.13.03-.26.03-.39.02-.3.03-.6.03-.9v-.09c-.02-2.84-1.04-5.63-2.96-7.83-.05-.05-.09-.1-.14-.14-.02-.02-.04-.04-.06-.06-.03-.03-.06-.06-.08-.08,0,0-.02-.02-.02-.02t0,0c-.1-.09-.19-.18-.29-.27-2.96-2.66-7.2-3.47-10.96-2.02-2.76,1.34-5.28,3.13-7.44,5.3-3.55,3.54-7.23,6.94-11.03,10.21,3.3-3.28,6.53-6.62,9.7-10.03,2.02-2.35,4.27-4.49,6.72-6.4.13-.1.26-.2.4-.3.13-.09.26-.19.4-.28.09-.06.18-.12.27-.18.11-.08.23-.15.34-.22.08-.05.16-.1.24-.15.11-.07.23-.14.34-.2.08-.05.17-.1.26-.15.08-.05.17-.1.26-.14.14-.08.28-.15.42-.22.14-.07.27-.14.41-.2.01,0,.02-.01.04-.02.15-.07.3-.14.45-.21.15-.07.3-.13.45-.2.06-.03.12-.05.18-.08.07-.03.14-.05.2-.08.05-.02.1-.04.14-.06.1-.04.21-.08.31-.12,0,0,.01,0,.02,0,.09-.03.18-.07.28-.1.08-.03.17-.06.25-.09.14-.05.27-.09.41-.13.15-.05.31-.09.47-.14.16-.05.31-.09.47-.13.03,0,.05-.02.08-.02.99-.22,1.98-.32,2.95-.32.12,0,.23,0,.35,0,.02,0,.04,0,.07,0,.09,0,.17,0,.26.01.03,0,.06,0,.1,0,.07,0,.14,0,.21.02.11,0,.21.02.32.03.1,0,.2.02.3.03.22.03.43.06.64.09.23.04.45.08.68.13.1.02.2.04.29.07.04,0,.08.02.12.03.09.02.18.05.27.07.06.01.11.03.16.05.07.02.14.04.21.06.02,0,.03,0,.05.01.1.03.2.06.3.1.06.02.11.04.17.06.05.01.1.03.15.05,0,0,.01,0,.02,0,.11.04.23.08.34.13.07.03.14.06.21.09.09.04.18.08.27.11.06.03.12.05.18.08.11.05.22.1.33.15.11.05.22.11.32.16.12.06.24.13.35.19.11.06.21.12.31.18.1.06.21.12.31.19.09.06.18.11.27.17.1.07.2.14.3.2,0,0,.02.01.03.02.1.07.2.14.29.21.1.07.19.14.29.22.09.07.18.14.26.21.1.08.2.16.29.25.06.05.13.11.19.17.07.06.14.13.21.2.07.06.13.12.2.19.06.06.13.13.19.19.08.08.17.17.24.25.13.13.25.27.36.41.12.14.24.28.35.42.11.14.21.27.32.42.01.01.02.02.03.03.11.14.21.29.3.44.03.04.06.09.09.13.02.03.04.07.06.1.03.04.05.08.08.13.05.08.11.17.16.25,0,0,.01.02.01.02.06.1.12.2.18.31.04.07.08.14.11.21.02.04.05.09.07.13.05.09.1.19.15.29.02.03.04.07.05.11.02.03.04.07.05.11.03.07.07.14.1.21,0,.02.02.04.03.06.03.06.05.12.07.17.06.15.12.29.18.44.04.09.07.18.1.27.07.18.13.37.19.55.03.09.06.19.09.28.01.05.03.09.04.14.01.05.03.09.04.14,1.09,4.43.2,9.12-2.45,12.84Z"/>
        <path class="cls-19" d="m81.07,22.79s-.03-.09-.04-.14c-.01-.05-.03-.09-.04-.14-.03-.09-.06-.19-.09-.28-.06-.19-.12-.37-.19-.55-.03-.09-.07-.18-.1-.27-.06-.15-.12-.3-.18-.44-.02-.06-.05-.11-.07-.17,0-.02-.02-.04-.03-.06-.03-.07-.06-.14-.1-.21-.01-.04-.03-.07-.05-.11-.02-.04-.03-.07-.05-.11-.05-.1-.1-.2-.15-.29-.02-.04-.05-.09-.07-.13-.04-.07-.08-.14-.11-.21-.06-.1-.12-.21-.18-.31,0,0,0-.02-.01-.02-.05-.08-.1-.17-.16-.25-.03-.04-.05-.08-.08-.13-.02-.03-.04-.07-.06-.1-.03-.04-.06-.09-.09-.13-.1-.15-.2-.29-.3-.44,0-.01-.01-.02-.03-.03-.1-.14-.21-.28-.32-.42-.11-.14-.23-.29-.35-.42-.12-.14-.24-.27-.36-.41-.08-.09-.16-.17-.24-.25-.06-.06-.13-.13-.19-.19-.06-.07-.13-.13-.2-.19-.07-.07-.14-.13-.21-.2-.06-.06-.12-.11-.19-.17-.09-.09-.19-.17-.29-.25-.09-.07-.17-.14-.26-.21-.09-.07-.19-.15-.29-.22-.1-.07-.19-.14-.29-.21,0,0-.02-.01-.03-.02-.1-.07-.2-.14-.3-.2-.09-.06-.18-.12-.27-.17-.1-.06-.2-.13-.31-.19-.1-.06-.21-.12-.31-.18-.12-.07-.24-.13-.35-.19-.11-.06-.21-.11-.32-.16-.11-.05-.22-.1-.33-.15-.06-.03-.12-.05-.18-.08-.09-.04-.18-.08-.27-.11-.07-.03-.14-.06-.21-.09-.11-.05-.23-.09-.34-.13,0,0-.01,0-.02,0-.05-.02-.1-.04-.15-.05-.06-.02-.11-.04-.17-.06-.1-.03-.2-.07-.3-.1-.02,0-.03-.01-.05-.01-.07-.02-.14-.04-.21-.06-.05-.02-.11-.03-.16-.05-.09-.03-.18-.05-.27-.07-.04-.01-.08-.02-.12-.03-.1-.02-.2-.05-.29-.07-.23-.05-.45-.09-.68-.13-.21-.04-.43-.07-.64-.09-.1-.01-.2-.02-.3-.03-.11-.01-.21-.02-.32-.03-.07,0-.14-.01-.21-.02-.03,0-.07,0-.1,0-.09,0-.17,0-.26-.01-.02,0-.05,0-.07,0-.12,0-.23,0-.35,0-.16,0-.32,0-.48.01v4.59c1.26.46,2.44,1.15,3.47,2.08.1.09.2.18.29.27t0,0s.02.02.02.02c.03.03.06.05.08.08.02.02.04.04.06.06.05.05.09.09.14.14,1.92,2.21,2.94,4.99,2.96,7.83v.09c0,.3-.01.6-.03.9,0,.13-.02.26-.03.39,0,.05,0,.09-.02.14-.02.16-.04.32-.07.48-.05.31-.11.62-.19.94-.08.32-.17.64-.27.95-1.48,3.74-4.53,6.64-8.34,7.91-3.94,1.19-8.19.73-11.78-1.29-1.61-.92-3.11-2.04-4.44-3.34.93,1.5,2.13,2.82,3.53,3.89,3.49,2.62,7.79,3.92,12.15,3.68,5.51-.38,10.38-2.96,13.76-6.86,0,0,0,0,0,0,2.64-3.72,3.54-8.41,2.45-12.84Z"/>
        <path class="cls-11" d="m78.62,35.63s0,0,0,0c-3.38,3.9-8.25,6.48-13.76,6.86-4.36.24-8.66-1.06-12.15-3.68-1.4-1.08-2.6-2.4-3.53-3.89,1.33,1.3,2.82,2.42,4.44,3.34,3.59,2.02,7.84,2.48,11.78,1.29,3.81-1.28,6.87-4.17,8.34-7.91.11-.32.2-.63.27-.95.08-.31.14-.62.19-.94.03-.16.05-.32.07-.48,0-.05.01-.09.02-.14.01-.13.03-.26.03-.39.02-.3.03-.6.03-.9v-.09c-.02-2.84-1.04-5.63-2.96-7.83-.05-.05-.09-.1-.14-.14-.02-.02-.04-.04-.06-.06-.03-.03-.06-.06-.08-.08,0,0-.02-.02-.02-.02t0,0c-.1-.09-.19-.18-.29-.27-2.96-2.66-7.2-3.47-10.96-2.02-2.76,1.34-5.28,3.13-7.44,5.3-3.55,3.54-7.23,6.94-11.03,10.21,3.3-3.28,6.53-6.62,9.7-10.03,2.02-2.35,4.27-4.49,6.72-6.4.13-.1.26-.2.4-.3.13-.09.26-.19.4-.28.09-.06.18-.12.27-.18.11-.08.23-.15.34-.22.08-.05.16-.1.24-.15.11-.07.23-.14.34-.2.08-.05.17-.1.26-.15.08-.05.17-.1.26-.14.14-.08.28-.15.42-.22.14-.07.27-.14.41-.2.01,0,.02-.01.04-.02.15-.07.3-.14.45-.21.15-.07.3-.13.45-.2.06-.03.12-.05.18-.08.07-.03.14-.05.2-.08.05-.02.1-.04.14-.06.1-.04.21-.08.31-.12,0,0,.01,0,.02,0,.09-.03.18-.07.28-.1.08-.03.17-.06.25-.09.14-.05.27-.09.41-.13.15-.05.31-.09.47-.14.16-.05.31-.09.47-.13.03,0,.05-.02.08-.02.99-.22,1.98-.32,2.95-.32.12,0,.23,0,.35,0,.02,0,.04,0,.07,0,.09,0,.17,0,.26.01.03,0,.06,0,.1,0,.07,0,.14,0,.21.02.11,0,.21.02.32.03.1,0,.2.02.3.03.22.03.43.06.64.09.23.04.45.08.68.13.1.02.2.04.29.07.04,0,.08.02.12.03.09.02.18.05.27.07.06.01.11.03.16.05.07.02.14.04.21.06.02,0,.03,0,.05.01.1.03.2.06.3.1.06.02.11.04.17.06.05.01.1.03.15.05,0,0,.01,0,.02,0,.11.04.23.08.34.13.07.03.14.06.21.09.09.04.18.08.27.11.06.03.12.05.18.08.11.05.22.1.33.15.11.05.22.11.32.16.12.06.24.13.35.19.11.06.21.12.31.18.1.06.21.12.31.19.09.06.18.11.27.17.1.07.2.14.3.2,0,0,.02.01.03.02.1.07.2.14.29.21.1.07.19.14.29.22.09.07.18.14.26.21.1.08.2.16.29.25.06.05.13.11.19.17.07.06.14.13.21.2.07.06.13.12.2.19.06.06.13.13.19.19.08.08.17.17.24.25.13.13.25.27.36.41.12.14.24.28.35.42.11.14.21.27.32.42.01.01.02.02.03.03.11.14.21.29.3.44.03.04.06.09.09.13.02.03.04.07.06.1.03.04.05.08.08.13.05.08.11.17.16.25,0,0,.01.02.01.02.06.1.12.2.18.31.04.07.08.14.11.21.02.04.05.09.07.13.05.09.1.19.15.29.02.03.04.07.05.11.02.03.04.07.05.11.03.07.07.14.1.21,0,.02.02.04.03.06.03.06.05.12.07.17.06.15.12.29.18.44.04.09.07.18.1.27.07.18.13.37.19.55.03.09.06.19.09.28.01.05.03.09.04.14.01.05.03.09.04.14,1.09,4.43.2,9.12-2.45,12.84Z"/>
        <path class="cls-12" d="m81.07,22.79s-.03-.09-.04-.14c-.01-.05-.03-.09-.04-.14-.03-.09-.06-.19-.09-.28-.06-.19-.12-.37-.19-.55-.03-.09-.07-.18-.1-.27-.06-.15-.12-.3-.18-.44-.02-.06-.05-.11-.07-.17,0-.02-.02-.04-.03-.06-.03-.07-.06-.14-.1-.21-.01-.04-.03-.07-.05-.11-.02-.04-.03-.07-.05-.11-.05-.1-.1-.2-.15-.29-.02-.04-.05-.09-.07-.13-.04-.07-.08-.14-.11-.21-.06-.1-.12-.21-.18-.31,0,0,0-.02-.01-.02-.05-.08-.1-.17-.16-.25-.03-.04-.05-.08-.08-.13-.02-.03-.04-.07-.06-.1-.03-.04-.06-.09-.09-.13-.1-.15-.2-.29-.3-.44,0-.01-.01-.02-.03-.03-.1-.14-.21-.28-.32-.42-.11-.14-.23-.29-.35-.42-.12-.14-.24-.27-.36-.41-.08-.09-.16-.17-.24-.25-.06-.06-.13-.13-.19-.19-.06-.07-.13-.13-.2-.19-.07-.07-.14-.13-.21-.2-.06-.06-.12-.11-.19-.17-.09-.09-.19-.17-.29-.25-.09-.07-.17-.14-.26-.21-.09-.07-.19-.15-.29-.22-.1-.07-.19-.14-.29-.21,0,0-.02-.01-.03-.02-.1-.07-.2-.14-.3-.2-.09-.06-.18-.12-.27-.17-.1-.06-.2-.13-.31-.19-.1-.06-.21-.12-.31-.18-.12-.07-.24-.13-.35-.19-.11-.06-.21-.11-.32-.16-.11-.05-.22-.1-.33-.15-.06-.03-.12-.05-.18-.08-.09-.04-.18-.08-.27-.11-.07-.03-.14-.06-.21-.09-.11-.05-.23-.09-.34-.13,0,0-.01,0-.02,0-.05-.02-.1-.04-.15-.05-.06-.02-.11-.04-.17-.06-.1-.03-.2-.07-.3-.1-.02,0-.03-.01-.05-.01-.07-.02-.14-.04-.21-.06-.05-.02-.11-.03-.16-.05-.09-.03-.18-.05-.27-.07-.04-.01-.08-.02-.12-.03-.09-.02-.17-.04-.26-.06v6.33s.02.02.04.03c.1.09.2.18.29.27t0,0s.02.02.02.02c.03.03.06.05.08.08.02.02.04.04.06.06.05.05.09.09.14.14,1.92,2.21,2.94,4.99,2.96,7.83v.09c0,.3-.01.6-.03.9,0,.13-.02.26-.03.39,0,.05,0,.09-.02.14-.02.16-.04.32-.07.48-.05.31-.11.62-.19.94-.08.32-.17.64-.27.95-1.48,3.74-4.53,6.64-8.34,7.91-3.94,1.19-8.19.73-11.78-1.29-1.61-.92-3.11-2.04-4.44-3.34.93,1.5,2.13,2.82,3.53,3.89,3.49,2.62,7.79,3.92,12.15,3.68,5.51-.38,10.38-2.96,13.76-6.86,0,0,0,0,0,0,2.64-3.72,3.54-8.41,2.45-12.84Z"/>
        <path class="cls-16" d="m59.84,17.31c3.76-1.45,7.99-.64,10.96,2.02.1.09.2.18.29.27t0,0s.02.02.02.02c.03.03.06.05.08.08.02.02.04.04.06.06.05.05.09.09.14.14.38.44.72.9,1.03,1.38h8.13c-.05-.11-.09-.22-.14-.33-.02-.06-.05-.11-.07-.17,0-.02-.02-.04-.03-.06-.03-.07-.06-.14-.1-.21-.01-.04-.03-.07-.05-.11-.02-.04-.03-.07-.05-.11-.05-.1-.1-.2-.15-.29-.02-.04-.05-.09-.07-.13-.04-.07-.08-.14-.11-.21-.06-.1-.12-.21-.18-.31,0,0,0-.02-.01-.02-.05-.08-.1-.17-.16-.25-.03-.04-.05-.08-.08-.13-.02-.03-.04-.07-.06-.1-.03-.04-.06-.09-.09-.13-.1-.15-.2-.29-.3-.44,0-.01-.01-.02-.03-.03-.1-.14-.21-.28-.32-.42-.11-.14-.23-.29-.35-.42-.12-.14-.24-.27-.36-.41-.08-.09-.16-.17-.24-.25-.06-.06-.13-.13-.19-.19-.06-.07-.13-.13-.2-.19-.07-.07-.14-.13-.21-.2-.06-.06-.12-.11-.19-.17-.09-.09-.19-.17-.29-.25-.09-.07-.17-.14-.26-.21-.09-.07-.19-.15-.29-.22-.1-.07-.19-.14-.29-.21,0,0-.02-.01-.03-.02-.1-.07-.2-.14-.3-.2-.09-.06-.18-.12-.27-.17-.1-.06-.2-.13-.31-.19-.1-.06-.21-.12-.31-.18-.12-.07-.24-.13-.35-.19-.11-.06-.21-.11-.32-.16-.11-.05-.22-.1-.33-.15-.06-.03-.12-.05-.18-.08-.09-.04-.18-.08-.27-.11-.07-.03-.14-.06-.21-.09-.11-.05-.23-.09-.34-.13,0,0-.01,0-.02,0-.05-.02-.1-.04-.15-.05-.06-.02-.11-.04-.17-.06-.1-.03-.2-.07-.3-.1-.02,0-.03-.01-.05-.01-.07-.02-.14-.04-.21-.06-.05-.02-.11-.03-.16-.05-.09-.03-.18-.05-.27-.07-.04-.01-.08-.02-.12-.03-.1-.02-.2-.05-.29-.07-.23-.05-.45-.09-.68-.13-.21-.04-.43-.07-.64-.09-.1-.01-.2-.02-.3-.03-.11-.01-.21-.02-.32-.03-.07,0-.14-.01-.21-.02-.03,0-.07,0-.1,0-.09,0-.17,0-.26-.01-.02,0-.05,0-.07,0-.12,0-.23,0-.35,0-.97,0-1.96.1-2.95.32-.03,0-.05.01-.08.02-.16.04-.32.08-.47.13-.16.05-.31.09-.47.14-.14.04-.27.09-.41.13-.08.03-.17.06-.25.09-.09.03-.18.06-.28.1,0,0-.01,0-.02,0-.11.04-.21.08-.31.12-.05.02-.1.04-.14.06-.07.03-.14.06-.2.08-.06.03-.12.05-.18.08-.15.06-.3.13-.45.2-.15.07-.3.14-.45.21-.01,0-.02.01-.04.02-.14.07-.27.14-.41.2-.14.07-.28.15-.42.22-.09.05-.17.09-.26.14-.09.05-.17.1-.26.15-.12.07-.23.13-.34.2-.08.05-.16.1-.24.15-.11.07-.23.15-.34.22-.09.06-.18.12-.27.18-.14.09-.27.18-.4.28-.13.1-.27.2-.4.3-2.44,1.91-4.7,4.05-6.72,6.4-3.17,3.41-6.41,6.75-9.7,10.03,3.8-3.27,7.48-6.67,11.03-10.21,2.17-2.17,4.68-3.96,7.44-5.3Z"/>
        <path class="cls-25" d="m34.87,20.4c-.77.79-1.53,1.59-2.29,2.39-2.69,2.61-5.63,4.95-8.78,6.99-2.94,1.92-6.34,3.03-9.85,3.2-4.6.27-8.93-2.19-11.04-6.29-2.22-4.59-1.49-10.06,1.85-13.91h0c.56-.61,1.17-1.19,1.82-1.72,4.97-4.14,11.88-5.04,17.75-2.31,2.21,1.05,4.14,2.61,5.63,4.56.41.57.78,1.17,1.08,1.8-2-2.51-4.71-4.36-7.78-5.31-2.8-.77-5.75-.75-8.54.05-5.34,1.86-8.43,7.43-7.18,12.95.67,3.27,3.05,5.94,6.22,6.99,3.1.77,6.38.44,9.26-.95,4.42-2.1,8.43-4.95,11.85-8.43Z"/>
        <path class="cls-21" d="m34.87,20.4c-.77.79-1.53,1.59-2.29,2.39-2.69,2.61-5.63,4.95-8.78,6.99-2.94,1.92-6.34,3.03-9.85,3.2-4.6.27-8.93-2.19-11.04-6.29-2.22-4.59-1.49-10.06,1.85-13.91h0c.56-.61,1.17-1.19,1.82-1.72,4.97-4.14,11.88-5.04,17.75-2.31,2.21,1.05,4.14,2.61,5.63,4.56.41.57.78,1.17,1.08,1.8-2-2.51-4.71-4.36-7.78-5.31-2.8-.77-5.75-.75-8.54.05-5.34,1.86-8.43,7.43-7.18,12.95.67,3.27,3.05,5.94,6.22,6.99,3.1.77,6.38.44,9.26-.95,4.42-2.1,8.43-4.95,11.85-8.43Z"/>
        <path class="cls-18" d="m34.87,20.4c-.77.79-1.53,1.59-2.29,2.39-2.69,2.61-5.63,4.95-8.78,6.99-2.94,1.92-6.34,3.03-9.85,3.2-4.6.27-8.93-2.19-11.04-6.29-2.22-4.59-1.49-10.06,1.85-13.91h0c.56-.61,1.17-1.19,1.82-1.72,4.97-4.14,11.88-5.04,17.75-2.31,2.21,1.05,4.14,2.61,5.63,4.56.41.57.78,1.17,1.08,1.8-2-2.51-4.71-4.36-7.78-5.31-2.8-.77-5.75-.75-8.54.05-5.34,1.86-8.43,7.43-7.18,12.95.67,3.27,3.05,5.94,6.22,6.99,3.1.77,6.38.44,9.26-.95,4.42-2.1,8.43-4.95,11.85-8.43Z"/>
        <path class="cls-20" d="m2.91,26.69c-2.22-4.59-1.49-10.06,1.85-13.91h0c.56-.61,1.17-1.19,1.82-1.72,4.97-4.14,11.88-5.04,17.75-2.31,2.21,1.05,4.14,2.61,5.63,4.56.41.57.78,1.17,1.08,1.8-2-2.51-4.71-4.36-7.78-5.31-2.8-.77-5.75-.75-8.54.05-5.34,1.86-8.43,7.43-7.18,12.95.67,3.27-2.52,8-4.63,3.9Z"/>
        <path class="cls-7" d="m2.91,26.69c-2.22-4.59-1.49-10.06,1.85-13.91h0c.56-.61,1.17-1.19,1.82-1.72,4.97-4.14,11.88-5.04,17.75-2.31,2.21,1.05,4.14,2.61,5.63,4.56.41.57.78,1.17,1.08,1.8-2-2.51-4.71-4.36-7.78-5.31-2.8-.77-5.75-.75-8.54.05-5.34,1.86-8.43,7.43-7.18,12.95.67,3.27-2.52,8-4.63,3.9Z"/>
      </g>
      <path class="cls-24" d="m124.52,13.54c0-1.37-1.11-2.49-2.49-2.49h-3.5l1.3-3.84h-5.23l-1.3,3.84h-9.11l-1.3-3.84h-5.23l1.3,3.84h-5.99v20.95h4.65V13.54h3.16l-1.31,3.87h5.23l1.31-3.87h5.48l1.31,3.87h5.23l-1.31-3.87h3.16v12.62c0,3.47-.83,5.84-.83,5.84h4.65s.83-1.74.83-5.84v-12.62Zm12.56-2.49h-5.23l1.95,5.76c.13.38.17.79.11,1.19l-2.06,14h5.23l2.02-13.74c.08-.57.03-1.15-.15-1.7l-1.86-5.51Zm22.84,0h-1.98l2.37-6.99c.54-1.61-.65-3.28-2.35-3.28h-1.77s-14.46,0-14.46,0v2.49h13.62l-2.63,7.78h-10.99v2.49h16.04v12.62c0,3.47-.83,5.84-.83,5.84h4.65s.83-1.74.83-5.84v-12.62c0-1.37-1.11-2.48-2.48-2.48Zm-8.88,5.59s-.84,5.71-1.29,8.76c-.45,3.05-1.48,5.84-1.48,5.84h4.5s1.19-1.57,1.79-5.84c.38-2.71,1.29-8.76,1.29-8.76h-4.8Zm-33.04,2.66h-18.54v9.93h18.54v-9.93Zm-4.65,7.44h-9.24v-4.95h9.24v4.95Zm25.33-20.11l-2.15-6.34h-5.23l2.15,6.34h5.23Zm8.56,18.78c.38-2.71,1.29-8.76,1.29-8.76h-4.8s-.84,5.71-1.29,8.76c-.45,3.05-1.48,5.84-1.48,5.84h4.5s1.19-1.57,1.79-5.84ZM124.52,2.99h-12.86l-1.01-2.99h-5.23l1.01,2.99h-13.45v2.49h31.55v-2.49Zm-3.73,37.97c-1.21-.25-1.67-.44-1.67-.86s.37-.67,1.11-.67,1.61.21,2.35.49l.64-1.42c-.82-.33-1.76-.61-2.94-.61-1.75,0-2.87.94-2.87,2.3,0,1.46,1.18,1.99,2.8,2.35,1.17.25,1.6.44,1.6.87,0,.39-.35.72-1.24.72-.94,0-1.65-.21-2.58-.61l-.72,1.43c1.11.54,1.96.72,3.26.72,1.93,0,3.03-.94,3.03-2.37s-1.01-1.99-2.76-2.35Zm-8.06-3.07c-.76,0-1.46.22-2.01.61v-.47h-1.93v7.54h1.93v-5.35c.43-.37.99-.6,1.67-.6.93,0,2,.57,2,1.74v4.21h1.93v-4.21c0-2.2-1.24-3.47-3.59-3.47Zm15.51,0c-2.28,0-3.86,1.74-3.86,3.9s1.58,3.89,3.86,3.89c1.47,0,2.71-.61,3.4-1.56l-1.24-1.03c-.42.57-1.15.93-1.94.93-1.15,0-1.94-.69-2.15-1.68h5.58c0-.12.01-.28.01-.43,0-2.35-1.35-4.03-3.67-4.03Zm-1.92,3.22c.18-.93.9-1.68,1.92-1.68,1.29,0,1.75.82,1.82,1.68h-3.74Zm-29.83-.15c-1.21-.25-1.67-.44-1.67-.86s.37-.67,1.11-.67,1.61.21,2.35.49l.64-1.42c-.82-.33-1.76-.61-2.94-.61-1.75,0-2.87.94-2.87,2.3,0,1.46,1.18,1.99,2.8,2.35,1.17.25,1.6.44,1.6.87,0,.39-.35.72-1.24.72-.94,0-1.65-.21-2.58-.61l-.72,1.43c1.11.54,1.96.72,3.26.72,1.93,0,3.03-.94,3.03-2.37s-1.01-1.99-2.76-2.35Zm7.57-3.07c-2.28,0-3.86,1.74-3.86,3.9s1.58,3.89,3.86,3.89c1.47,0,2.71-.61,3.4-1.56l-1.24-1.03c-.42.57-1.15.93-1.94.93-1.15,0-1.94-.69-2.15-1.68h5.58c0-.12.01-.28.01-.43,0-2.35-1.35-4.03-3.67-4.03Zm-1.92,3.22c.18-.93.9-1.68,1.92-1.68,1.29,0,1.75.82,1.82,1.68h-3.74Zm37.32,4.46h1.93v-7.31h-1.93v7.31Zm11.59-7.68c-.89,0-1.72.36-2.36.96-.51-.67-1.34-.96-2.1-.96s-1.39.32-1.85.84v-.47h-1.94v7.31h1.94v-5.35c.26-.35.76-.6,1.34-.6.81,0,1.29.65,1.29,1.74v4.21h1.93v-4.18c0-.68-.01-.96-.08-1.17.4-.37.74-.6,1.32-.6,1.02,0,1.38.8,1.38,1.74v4.21h1.93v-4.21c0-2.14-1.06-3.47-2.8-3.47Zm-15.11-1.32l-1.94.24v1.45h-1.07v1.6h1.07v3.45c0,1.58,1.01,2.37,2.28,2.37,1.08,0,1.67-.25,1.75-.28v-1.44c-.26.03-.56.07-.89.07-.97,0-1.19-.39-1.19-1.74v-2.43h2.11v-1.6h-2.11v-1.69Zm22.79,1.32c-2.28,0-3.86,1.74-3.86,3.9s1.58,3.89,3.86,3.89c1.47,0,2.71-.61,3.4-1.56l-1.24-1.03c-.42.57-1.15.93-1.94.93-1.15,0-1.94-.69-2.15-1.68h5.58c0-.12.01-.28.01-.43,0-2.35-1.35-4.03-3.67-4.03Zm-1.92,3.22c.18-.93.9-1.68,1.92-1.68,1.29,0,1.75.82,1.82,1.68h-3.74Zm-16.39-5.59c-.58,0-1.06.47-1.06,1.06s.47,1.06,1.06,1.06,1.06-.47,1.06-1.06-.47-1.06-1.06-1.06Z"/>
    </g>
  </g>
</svg>