<svg width="272" height="65" viewBox="0 0 272 65" fill="none" xmlns="http://www.w3.org/2000/svg">
<g clip-path="url(#clip0_8427_2169)">
<path d="M68.5589 41.4075C61.3516 41.4075 60.2868 35.9048 60.2868 27.4797V27.0309H78.8431C78.8431 19.537 74.6958 14.3877 66.9393 14.3877C58.4822 14.3877 53.9146 20.9113 53.9146 28.7642C53.9146 36.6172 58.1963 43.1407 66.8832 43.1407C72.2579 43.1407 76.6181 41.1102 78.8991 35.1644L77.5877 34.7381C76.0128 38.4514 73.3788 41.4075 68.5589 41.4075ZM60.3372 24.03C60.6399 19.8623 62.1587 15.8237 66.5469 15.8237C71.2154 15.8237 72.2411 19.4753 72.3475 23.3401C72.3587 23.6991 72.3587 24.9499 72.3587 25.2921H60.2868C60.2868 24.9163 60.3092 24.417 60.3372 24.03Z" fill="#4F2683"/>
<path d="M84.6214 57.7529C82.6711 57.1247 82.0546 56.7769 82.0546 55.7336C82.0546 54.881 82.8056 54.2191 84.0442 54.2191C85.2099 54.2191 86.0225 54.6959 86.4821 55.8963L87.2331 55.5429C86.796 54.3032 85.7928 53.4114 84.0554 53.4114C82.318 53.4114 81.1747 54.4659 81.1747 55.7897C81.1747 57.3154 82.1891 57.8595 84.1787 58.4821C86.1458 59.1104 86.6054 59.5984 86.6054 60.5632C86.6054 61.6065 85.7031 62.2403 84.3132 62.2403C83.013 62.2403 82.0714 61.5784 81.6623 60.2883L80.8721 60.5744C81.3092 62.0777 82.5366 63.0312 84.274 63.0312C86.1234 63.0312 87.4909 62.044 87.4909 60.5015C87.4909 58.9589 86.5382 58.3587 84.6102 57.7473L84.6214 57.7529Z" fill="#4F2683"/>
<path d="M75.8953 56.1038C75.8953 54.4771 74.7464 53.5964 72.6783 53.5964H69.5735V62.8629H70.4478V58.7065H72.7512L75.0154 62.8629H76.0186L73.6759 58.6055C75.0154 58.3587 75.8897 57.6014 75.8897 56.1038H75.8953ZM72.6167 57.9156H70.4534V54.4098H72.6055C74.1579 54.4098 75.0098 54.8641 75.0098 56.1374C75.0098 57.478 74.1467 57.9156 72.6223 57.9156H72.6167Z" fill="#4F2683"/>
<path d="M58.8129 3.573V2.20434H47.4527V3.573H52.4743L51.1629 8.14454L43.283 32.2587H43.171L34.3216 8.02674L32.7803 3.56739H38.4296V2.19873H20.955V3.56739H25.8084L28.6667 11.2801L21.4145 32.2531H21.3025L12.5651 8.14454L11.0239 3.573H16.0455V2.19873H0V3.56739H3.88387L5.9407 8.99714L18.4442 43.0565H19.5875C19.5875 43.0565 27.2375 21.1075 29.6923 14.023L40.4864 43.0565H41.6858L52.9899 8.59328L54.7609 3.56739H58.8129V3.573Z" fill="#4F2683"/>
<path d="M18.1191 59.6095C18.1191 61.1521 17.3569 62.2291 15.6419 62.2291C13.927 62.2291 13.1536 61.1016 13.1536 59.5871V53.602H12.2625V59.7386C12.2625 61.5784 13.3497 63.0312 15.6307 63.0312C17.9117 63.0312 19.0102 61.5504 19.0102 59.7105V53.5964H18.1191V59.6095Z" fill="#4F2683"/>
<path d="M93.9024 41.5982C88.4381 41.5982 85.2211 38.0363 84.0274 32.8141H82.6655L84.4982 42.8378C85.0922 42.1423 85.8657 41.8955 86.6447 41.8955C88.2195 41.8955 90.2203 43.1014 93.7679 43.1014C99.4676 43.1014 103.772 39.9266 103.772 34.5249C103.772 23.7159 88.2756 26.571 88.2756 19.5819C88.2756 17.3606 89.856 15.7115 92.7143 15.7115C97.2427 15.7115 99.7759 18.9144 100.863 22.7174H102.203L100.656 14.1521C100.135 14.7355 99.4452 15.0552 98.6045 15.0552C96.7215 15.0552 95.5613 14.2755 92.6806 14.2755C87.7544 14.2755 83.9321 16.9567 83.9321 21.8256C83.9321 31.7876 99.1874 29.6617 99.1874 36.8191C99.1874 40.0612 96.8279 41.5982 93.9024 41.5982Z" fill="#4F2683"/>
<path d="M31.4409 61.2362H31.4129L26.3072 53.5964H25.3545V62.8629H26.1952V54.9875H26.2176L31.4857 62.8629H32.276V53.5964H31.4409V61.2362Z" fill="#4F2683"/>
<path d="M40.0605 53.5964H39.1694V62.8629H40.0605V53.5964Z" fill="#4F2683"/>
<path d="M49.3246 61.685H49.2966L46.5336 53.5964H45.6145L48.8707 62.9022H49.7113L52.9619 53.5964H52.0988L49.3246 61.685Z" fill="#4F2683"/>
<path d="M59.2332 58.3699H62.7023V57.5678H59.2332V54.421H63.8792V53.5964H58.3477V62.8629H64.1426V62.0496H59.2332V58.3699Z" fill="#4F2683"/>
<path d="M94.0032 53.5964H93.1177V62.8629H94.0032V53.5964Z" fill="#4F2683"/>
<path d="M178.165 53.5571L174.707 62.8629H175.576L176.624 60.0134H180.726L181.774 62.8629H182.705L179.247 53.5571H178.171H178.165ZM176.91 59.2225L178.653 54.4883H178.686L180.429 59.2225H176.91Z" fill="#4F2683"/>
<path d="M98.8567 54.421H101.844V62.8629H102.735V54.421H105.728V53.5964H98.8567V54.421Z" fill="#4F2683"/>
<path d="M176.534 18.1685C176.534 15.9528 174.898 14.2756 171.854 14.2756C167.309 14.2756 165.051 18.3592 163.879 21.6013H163.806V14.0457C162.904 14.7861 161.985 15.5041 159.575 15.5041H153.298V16.9008H158.107V41.0654H153.298V42.4621H168.441V41.0654H163.801V29.1514C163.801 22.8129 166.911 15.9304 170.907 15.9304C171.204 15.9304 171.406 15.964 171.569 16.0425C170.885 16.5923 170.442 17.4392 170.442 18.3872C170.442 20.1485 171.793 21.3994 173.452 21.3994C175.262 21.3994 176.523 19.8905 176.523 18.1628L176.534 18.1685Z" fill="#4F2683"/>
<path d="M191.027 53.5964H188.685V62.8629H191.027C194.003 62.8629 195.634 61.2755 195.634 58.2185C195.634 55.1614 194.042 53.5964 191.027 53.5964ZM191.156 62.0888H189.553V54.3986H191.128C193.448 54.3986 194.765 55.5821 194.765 58.2185C194.765 60.8548 193.465 62.0888 191.156 62.0888Z" fill="#4F2683"/>
<path d="M203.968 53.5571L200.51 62.8629H201.378L202.426 60.0134H206.529L207.577 62.8629H208.507L205.049 53.5571H203.973H203.968ZM202.712 59.2225L204.455 54.4883H204.489L206.232 59.2225H202.712Z" fill="#4F2683"/>
<path d="M206.507 41.0709V22.2743C206.507 16.6819 203.766 14.2755 198.291 14.2755C193.706 14.2755 190.355 16.5136 188.623 20.3167H188.511V14.1577C187.76 14.7747 186.74 15.5039 184.257 15.5039H178.344V16.9006H182.817V41.0653H178.008V42.462H192.927V41.0653H188.511V26.5205C188.511 21.3207 191.19 16.2836 196.245 16.2836C199.086 16.2836 200.807 17.8879 200.807 22.1004V41.0653H196.391V42.462H210.923V41.0653H206.507V41.0709Z" fill="#4F2683"/>
<path d="M167.959 61.2362H167.931L162.826 53.5964H161.873V62.8629H162.713V54.9875H162.742L168.01 62.8629H168.794V53.5964H167.959V61.2362Z" fill="#4F2683"/>
<path d="M119.576 40.8971C117.447 40.8971 116.567 39.5621 116.567 36.2583V16.9064H123.443V15.5097H116.567V6.26562H115.39C114.628 12.2283 111.635 15.2853 106.221 15.8014V16.9008H110.749V36.0283C110.749 39.607 111.444 43.023 117.256 43.023C120.921 43.023 123.146 41.3291 124.306 39.1358L124.755 38.244L123.544 37.6662C122.816 39.2929 121.656 40.8915 119.582 40.8915L119.576 40.8971Z" fill="#4F2683"/>
<path d="M151.376 53.5571L147.918 62.8629H148.786L149.834 60.0134H153.937L154.985 62.8629H155.915L152.457 53.5571H151.381H151.376ZM150.12 59.2225L151.863 54.4883H151.897L153.64 59.2225H150.12Z" fill="#4F2683"/>
<path d="M113.327 58.0165L110.727 53.5964H109.763L112.862 58.813V62.8629H113.753V58.813L116.869 53.5964H115.917L113.327 58.0165Z" fill="#4F2683"/>
<path d="M125.853 57.332C125.31 57.332 124.917 57.7247 124.917 58.28C124.917 58.8353 125.31 59.2167 125.853 59.2167C126.397 59.2167 126.8 58.8241 126.8 58.28C126.8 57.7359 126.408 57.332 125.853 57.332Z" fill="#4F2683"/>
<path d="M139.259 62.2403C137.454 62.2403 136.283 60.7371 136.283 58.168C136.283 55.7897 137.443 54.2359 139.237 54.2359C140.649 54.2359 141.338 54.9988 141.753 56.4628L142.605 56.2497C142.168 54.5332 141.125 53.417 139.253 53.417C136.939 53.417 135.397 55.3858 135.397 58.1905C135.397 61.1465 136.911 63.0369 139.253 63.0369C141.103 63.0369 142.308 61.8982 142.756 60.0696L141.904 59.8845C141.506 61.4382 140.643 62.2403 139.265 62.2403H139.259Z" fill="#4F2683"/>
<path d="M151.152 35.1644L149.84 34.7381C148.265 38.4514 145.631 41.4075 140.811 41.4075C133.604 41.4075 132.539 35.9048 132.539 27.4797V27.0309H151.096C151.096 19.537 146.948 14.3877 139.192 14.3877C130.735 14.3877 126.167 20.9113 126.167 28.7642C126.167 36.6172 130.449 43.1407 139.136 43.1407C144.51 43.1407 148.871 41.1102 151.152 35.1644ZM132.595 24.03C132.898 19.8623 134.417 15.8237 138.805 15.8237C143.473 15.8237 144.499 19.4753 144.606 23.3401C144.617 23.6991 144.617 24.9499 144.617 25.2921H132.545C132.545 24.9163 132.567 24.417 132.595 24.03Z" fill="#4F2683"/>
<path d="M271.994 26.8907V3.52261C265.947 1.38549 256.464 0 245.766 0C235.067 0 225.937 1.37427 219.895 3.52261V27.2329C219.895 30.7275 219.733 36.9145 222.911 44.3243C226.856 53.5235 234.484 60.4397 245.379 64.7756L245.945 65.0056L246.505 64.7756C257.406 60.4397 265.039 53.5235 268.979 44.3243C272.157 36.9201 271.994 30.2451 271.994 26.8964V26.8907Z" fill="white"/>
<path d="M271.994 26.8907V3.52261C265.947 1.38549 256.464 0 245.766 0C235.067 0 225.937 1.37427 219.895 3.52261V27.2329C219.895 30.7275 219.733 36.9145 222.911 44.3243C226.856 53.5235 234.484 60.4397 245.379 64.7756L245.945 65.0056L246.505 64.7756C257.406 60.4397 265.039 53.5235 268.979 44.3243C272.157 36.9201 271.994 30.2451 271.994 26.8964V26.8907ZM251.645 52.4633C251.527 52.497 251.387 52.5531 251.275 52.6036C251.202 52.6372 251.157 52.6596 251.146 52.7213C251.14 52.7606 251.185 52.8223 251.207 52.8504C251.14 53.0972 250.546 53.0691 250.356 53.1364C250.187 53.1925 249.997 53.3776 249.885 53.4954C249.773 53.6188 249.812 53.5852 249.633 53.6244C249.313 53.6917 249.386 53.9834 249.481 54.2134C249.577 54.4434 249.745 54.6341 249.952 54.7687C250.025 54.8192 250.367 54.9482 250.546 54.9482C250.372 55.1389 250.126 55.0884 249.902 55.1838C249.778 55.2343 249.666 55.3072 249.526 55.3353C249.341 55.3745 249.251 55.3633 249.095 55.3353C248.854 55.2904 248.663 55.3016 248.467 55.324C248.316 55.3409 248.187 55.324 248.058 55.2455C248.002 55.2119 247.884 55.1333 247.828 55.1221C247.643 55.0941 247.794 55.3633 247.828 55.4587C247.581 55.6943 247.015 55.3689 246.791 55.2287C246.595 55.1109 246.488 54.8304 246.264 54.7575C246.248 54.9987 246.264 55.2343 246.264 55.4699C246.292 56.1991 246.309 56.9227 246.332 57.6519C246.343 58.0782 246.354 58.5045 246.371 58.9308H245.569L245.665 54.7295C245.412 54.7463 245.312 54.9819 245.104 55.0716C244.975 55.1277 244.841 55.0997 244.717 55.1782C244.589 55.2567 244.538 55.3689 244.392 55.4362C244.269 55.4923 244.112 55.5148 243.978 55.5091C243.804 55.5091 243.619 55.4755 243.524 55.3801C243.608 55.2287 243.524 55.066 243.417 55.0099C243.294 54.9482 243.12 55.0436 243.014 55.0716C242.459 55.2119 241.803 54.8697 241.299 54.679C241.299 54.679 242.521 54.4714 242.521 53.7591C242.521 53.5627 242.425 53.4001 242.28 53.2711C242.139 53.1533 241.87 53.013 241.68 52.985C241.372 52.9401 241.164 53.0186 240.979 52.9457C241.007 52.8504 240.839 52.7157 240.71 52.6204C240.587 52.5362 240.436 52.4914 240.307 52.4241C240.06 52.295 239.696 52.0707 239.797 51.7509C239.993 51.8519 240.184 51.8743 240.363 51.779C240.503 51.7005 240.553 51.5939 240.553 51.4256C240.553 51.2012 240.301 51.0498 240.217 50.8815C240.15 50.7469 240.088 50.6179 239.959 50.5169C239.847 50.4272 239.651 50.3991 239.645 50.2252C239.881 50.315 239.943 50.1074 239.808 49.956C239.651 49.7821 239.449 49.698 239.332 49.4848C239.231 49.2941 239.152 49.0641 239.147 48.8397C239.147 48.778 239.158 48.5873 239.248 48.5705C239.337 48.5537 239.365 48.6715 239.399 48.722C239.545 48.9351 239.758 49.0417 239.976 49.1483C240.245 49.2829 240.352 49.3558 240.654 49.4119C241.243 49.5185 241.618 49.4287 241.96 49.1146C242.016 49.0585 242.162 48.9575 242.235 48.9519C242.352 49.1202 242.666 49.4455 242.969 49.5353C243.193 49.597 243.456 49.9223 243.574 50.0233C243.983 50.3823 244.236 50.1747 244.23 49.8326C244.23 49.5465 244.123 49.1763 244.062 48.9014C243.961 48.4583 243.877 48.2396 243.815 47.7796C243.782 47.4991 243.625 47.2579 243.518 47.0672C243.417 46.8709 243.266 46.3661 243.636 46.54C243.787 46.6129 244.017 46.7531 244.202 46.7251C244.633 46.6634 244.689 46.1922 244.774 45.8388C244.818 45.6537 244.818 45.5022 244.886 45.3227C244.925 45.2162 244.975 45.1545 245.031 45.1545C245.048 45.2106 245.11 45.3059 245.205 45.3059C245.373 45.3059 245.513 45.0198 245.558 44.846C245.592 44.7001 245.62 44.5318 245.665 44.4028C245.743 44.1841 245.76 43.9204 245.878 43.6736C245.922 43.8363 245.995 44.128 246.035 44.2289C246.135 44.487 246.225 44.7506 246.376 44.9694C246.505 45.1545 246.673 45.2106 246.881 45.104C246.982 45.3508 246.982 46.1585 247.195 46.5343C247.318 46.7587 247.475 46.8372 247.665 46.8372C247.834 46.8372 247.957 46.7868 248.08 46.7138C248.231 46.6241 248.394 46.5119 248.506 46.5119C248.557 46.5119 248.585 46.5343 248.585 46.5848C248.585 46.7587 248.321 47.2131 248.288 47.3084C248.209 47.5272 248.08 47.774 248.013 47.9984C247.957 48.1835 247.901 48.4191 247.862 48.6154C247.817 48.8341 247.778 49.0866 247.766 49.4287C247.755 49.6306 247.766 50.0009 247.923 50.1074C248.147 50.2589 248.428 49.956 248.607 49.8158C248.826 49.6475 249.01 49.4848 249.173 49.2604C249.296 49.0978 249.537 48.6603 249.767 48.6827C249.767 48.8566 250.008 49.1034 250.378 49.1595C250.602 49.1931 250.787 49.1483 250.916 49.0529C251.09 48.9295 251.101 48.9351 251.291 49.008C251.712 49.1651 252.401 48.621 252.648 48.4247C252.732 48.5144 252.653 48.6771 252.547 48.8397C252.345 49.137 252.121 49.2324 252.121 49.4568C252.121 49.6531 251.88 50.0177 251.897 50.2364C251.824 50.3599 251.594 50.5001 251.488 50.5842C251.179 50.8422 250.994 51.1395 251.107 51.549C251.202 51.9024 251.493 52.0707 251.768 52.0707C252.042 52.0707 252.222 51.8856 252.312 51.9304C252.368 51.9641 252.233 52.1324 252.177 52.1772C252.026 52.3063 251.785 52.4016 251.617 52.4521L251.645 52.4633ZM267.197 19.38H224.721L222.003 16.5305L227.422 18.3366C226.974 16.9848 225.735 16.5192 224.939 15.3637C224.463 14.6794 224.301 14.0007 224.357 13.2995C224.502 13.5519 224.766 13.8941 225.175 14.1746C225.567 14.4438 226.094 14.657 226.811 14.8084C228.089 15.0833 228.75 15.4871 229.317 16.0088L226.542 11.0446L231.323 14.1297C231.127 12.7106 230.146 11.9701 229.658 10.6576C229.367 9.87228 229.378 9.17112 229.602 8.50362C229.681 8.77848 229.849 9.18234 230.174 9.55816C230.488 9.91716 230.942 10.2537 231.598 10.579C232.808 11.1848 233.346 11.757 233.766 12.4301L232.292 6.86011L236.137 11.011C236.288 9.61425 235.537 8.64946 235.392 7.26398C235.308 6.43381 235.481 5.74948 235.862 5.16051C235.868 5.45219 235.935 5.87849 236.154 6.32163C236.367 6.74793 236.726 7.18545 237.28 7.66785C238.34 8.59337 238.704 9.29453 238.945 10.0854L238.906 4.24059L241.579 9.19356C242.1 7.93709 241.551 6.78158 241.753 5.41293C241.876 4.58837 242.235 3.96013 242.756 3.48334C242.689 3.76381 242.644 4.19572 242.756 4.67812C242.857 5.14368 243.098 5.65973 243.513 6.25992C244.331 7.44348 244.499 8.22877 244.527 9.07016H244.538L245.962 3.34311L247.329 8.83457C248.153 7.7015 247.94 6.41698 248.484 5.13246C248.809 4.364 249.308 3.90965 249.93 3.5787C249.795 3.83112 249.644 4.24059 249.621 4.73421C249.605 5.21099 249.705 5.76631 249.958 6.45625C250.44 7.76881 250.412 8.55972 250.243 9.36184L253.012 4.23498L252.973 9.87228C254.049 9.02528 254.122 7.68467 254.962 6.58526C255.467 5.92337 256.078 5.60925 256.767 5.44097C256.571 5.65412 256.324 6.01312 256.184 6.48429C256.05 6.93864 256.01 7.50518 256.083 8.23999C256.229 9.66474 255.999 10.4332 255.618 11.1792L259.62 6.8545L258.185 12.2899C259.39 11.7177 259.827 10.5622 260.903 9.70961C261.559 9.19356 262.22 8.94115 262.921 8.95236C262.68 9.11503 262.355 9.3955 262.097 9.8218C261.85 10.2257 261.677 10.7642 261.564 11.4934C261.351 12.9013 260.942 13.5912 260.393 14.2195L260.416 14.2363L265.37 11.039L262.635 15.9359C263.969 15.7452 264.613 14.6794 265.863 14.1241C266.625 13.7875 267.348 13.6978 268.032 13.8829C267.757 13.9783 267.371 14.169 267.018 14.5223C266.681 14.8589 266.373 15.3357 266.087 16.0088C265.532 17.3158 264.972 17.8767 264.283 18.3479L264.311 18.3815L269.904 16.5192L267.191 19.3687L267.197 19.38ZM245.177 31.4118C245.104 31.2828 244.807 30.6209 243.182 30.6209H238.424V22.925H238.771V30.2675H243.12C243.451 30.2675 243.737 30.2843 243.983 30.3236C244.863 30.4638 245.227 30.8116 245.396 31.0584H246.511C246.679 30.8116 247.027 30.4638 247.901 30.3236C248.142 30.2843 248.428 30.2675 248.758 30.2675H253.119V22.9474H253.466V30.6153H248.697C247.071 30.6153 246.797 31.2828 246.741 31.4062H245.171L245.177 31.4118ZM245.754 30.1048V30.4807C245.093 29.2298 242.067 29.4373 239.5 29.6954V22.5604C240.884 22.5492 242.252 22.3585 243.316 22.3585C244.667 22.3585 245.597 22.566 245.76 23.3513V29.7627C244.936 28.7811 242.476 28.8764 239.903 29.1232V29.3308C242.453 29.084 245.138 28.9998 245.76 30.1105L245.754 30.1048ZM240.374 27.2946C240.682 27.2946 241.002 27.2778 241.254 27.2778C241.585 27.2778 241.859 27.289 242.128 27.2946V27.1488H241.988C241.557 27.1488 241.523 27.1039 241.523 26.8178V25.5838C241.523 25.2472 241.573 25.2192 241.859 25.2192H242.123V25.0734C241.842 25.0734 241.545 25.0902 241.248 25.0902C240.974 25.0902 240.665 25.079 240.368 25.0734V25.2192H240.637C240.923 25.2192 240.979 25.2416 240.979 25.5838V26.8234C240.979 27.1095 240.946 27.1544 240.514 27.1544H240.374V27.3002V27.2946ZM243.434 25.7801C243.103 25.5782 242.868 25.2921 242.868 24.9163C242.868 24.5966 243.103 24.0244 243.854 24.0244C244.454 24.0244 244.717 24.4002 244.717 24.7424C244.717 25.0846 244.594 25.3033 244.09 25.5389C244.577 25.7857 244.796 26.055 244.796 26.4364C244.796 26.9637 244.381 27.3507 243.748 27.3507C243.176 27.3507 242.812 26.9581 242.812 26.5486C242.812 26.0942 243.165 25.8755 243.434 25.7801ZM244.286 26.6664C244.286 26.3859 244.157 26.2064 243.574 25.853C243.316 25.9877 243.182 26.2569 243.182 26.5037C243.182 26.9581 243.501 27.1768 243.759 27.1768C244.118 27.1768 244.286 26.9132 244.286 26.6664ZM243.978 25.4716C244.202 25.2977 244.353 25.1126 244.353 24.7985C244.353 24.4339 244.112 24.2039 243.832 24.2039C243.513 24.2039 243.339 24.4619 243.339 24.7312C243.339 25.0173 243.535 25.208 243.983 25.4716H243.978ZM248.568 22.3585C249.633 22.3585 250.978 22.5604 252.396 22.5604V29.6954C249.823 29.4373 246.802 29.2298 246.135 30.4807V30.1048C246.735 28.9774 249.442 29.0784 251.998 29.3252V29.1176C249.414 28.8708 246.942 28.7642 246.135 29.7571V23.3457C246.298 22.5604 247.223 22.3585 248.568 22.3529V22.3585ZM246.886 25.8811H247.027L247.139 25.5782H248.478L247.172 28.2538L247.413 28.3211L249.044 25.1182L249.005 25.0734H247.004L246.881 25.8811H246.886ZM250.109 25.7801C249.773 25.5782 249.543 25.2921 249.543 24.9163C249.543 24.5966 249.773 24.0244 250.529 24.0244C251.135 24.0244 251.392 24.4002 251.392 24.7424C251.392 25.0846 251.269 25.3033 250.765 25.5389C251.252 25.7857 251.471 26.055 251.471 26.4364C251.471 26.9637 251.056 27.3507 250.417 27.3507C249.846 27.3507 249.481 26.9581 249.481 26.5486C249.481 26.0942 249.834 25.8755 250.103 25.7801H250.109ZM250.955 26.6664C250.955 26.3859 250.826 26.2064 250.243 25.853C249.986 25.9877 249.851 26.2569 249.851 26.5037C249.851 26.9581 250.171 27.1768 250.428 27.1768C250.793 27.1768 250.955 26.9132 250.955 26.6664ZM250.647 25.4716C250.871 25.2977 251.022 25.1126 251.022 24.7985C251.022 24.4339 250.781 24.2039 250.501 24.2039C250.182 24.2039 250.008 24.4619 250.008 24.7312C250.008 25.0173 250.204 25.208 250.653 25.4716H250.647ZM261.839 51.9192L245.945 38.9506L230.051 51.9192C221.846 42.3891 221.907 31.3894 221.93 26.8515V19.3856H221.963L245.945 38.9506L269.926 19.3856H269.96V26.8515C269.988 31.3894 270.044 42.3891 261.845 51.9192H261.839ZM232.063 44.9469C235.448 44.9469 238.194 42.1928 238.2 38.7824C238.205 35.3719 235.465 32.601 232.079 32.5954C228.7 32.5954 225.948 35.3495 225.943 38.7599C225.937 42.1703 228.678 44.9413 232.063 44.9469ZM236.031 36.2189C236.042 36.404 235.952 36.7182 235.879 36.8023C235.812 36.8247 235.638 36.8416 235.509 36.8472C235.431 36.8472 235.409 36.864 235.358 36.9425C235.207 37.2006 235.072 37.4417 234.91 37.7503C234.876 38.1149 234.876 38.4682 234.848 38.8945C234.837 39.046 234.859 39.2479 234.758 39.4218C234.624 39.5957 234.478 39.7135 234.361 39.7976C234.338 39.8145 234.304 39.8537 234.405 39.8257C234.467 39.8089 234.747 39.663 234.809 39.6462C235.011 39.5789 235.24 39.3321 235.56 39.6462C235.711 39.7976 235.947 39.9323 236.227 40.123C236.328 40.1903 236.384 40.1791 236.518 40.3025C236.63 40.4034 236.681 40.6166 236.748 40.7288C236.916 41.0205 236.939 41.1999 236.933 41.2673C236.821 41.329 236.423 41.329 236.26 41.2841C236.204 41.1831 236.21 41.0317 236.176 40.9531C236.12 40.8073 236.07 40.74 235.991 40.6895C235.868 40.6054 235.778 40.5044 235.65 40.4315C235.341 40.2576 235.302 40.2127 235.072 40.3305C234.865 40.4315 234.54 40.7232 234.204 40.9027C233.935 41.0317 233.206 40.9027 233.004 40.7175C233.071 40.9195 233.486 41.1439 233.789 41.2897C233.744 41.3963 233.638 41.9628 233.413 42.2938C233.402 42.2152 233.352 42.1535 233.279 42.1535C233.071 42.1535 233.111 42.5966 232.915 42.821C232.903 42.7537 232.853 42.6808 232.774 42.6808C232.578 42.6808 232.601 43.0959 232.382 43.3146C232.36 43.2249 232.304 43.1576 232.214 43.1576C232.124 43.1576 232.046 43.2417 231.973 43.3202C231.71 43.6007 231.586 43.7634 231.34 44.027C230.499 43.9765 229.26 43.3932 228.818 42.8659C229.614 42.0133 230.331 41.1607 230.678 40.9139C230.847 40.409 231.345 39.3489 231.53 38.8553C231.508 38.8048 231.48 38.7655 231.457 38.715C231.334 38.788 231.188 38.8048 231.121 38.7711C231.172 38.6309 231.177 38.4178 231.121 38.2495C231.031 38.3 230.903 38.328 230.813 38.2944C230.869 38.1317 230.88 37.9354 230.824 37.7783C230.712 37.8288 230.606 37.8456 230.521 37.8176C230.566 37.6325 230.617 37.4586 230.561 37.223C230.555 37.2062 230.549 37.1893 230.544 37.1725C230.393 37.251 229.855 37.3464 229.737 37.2959C229.658 37.2342 230.118 36.7686 230.505 36.3816C230.14 36.5443 229.67 36.7125 228.941 36.8584C228.526 36.9425 227.663 37.094 227.052 36.9818C226.951 36.965 226.974 36.8303 227.069 36.8303C227.389 36.8303 227.826 36.8135 228.145 36.735C228.229 36.7125 228.364 36.6396 228.117 36.6004C227.859 36.5555 227.377 36.477 227.142 36.3984C227.058 36.3704 227.103 36.2694 227.176 36.275C227.467 36.2975 227.815 36.3592 228.067 36.3704C228.212 36.3704 228.28 36.3536 228.168 36.2638C228.1 36.2077 227.893 36.0787 227.686 35.9497C227.641 35.9216 227.646 35.8599 227.702 35.8487C227.871 35.8207 228.521 36.2302 228.958 36.3479C229.059 36.376 229.137 36.3928 229.221 36.376C229.311 36.3592 229.322 36.3087 229.317 36.2694C229.3 36.1684 228.868 35.9609 228.661 35.8207C228.577 35.7646 228.661 35.6973 228.756 35.7253C228.991 35.7926 229.524 36.0731 229.765 36.1011C229.961 36.1236 230.028 36.0731 230.017 36.017C229.995 35.888 229.255 35.5402 229.081 35.4112C229.036 35.3775 229.098 35.3214 229.148 35.3271C229.524 35.3719 230.258 35.8824 230.583 35.8207C230.617 35.8207 230.662 35.787 230.656 35.7421C230.628 35.5963 230.017 35.2766 229.866 35.1756C229.793 35.1251 229.877 35.0746 229.983 35.0971C230.208 35.1476 230.555 35.3271 230.762 35.428C230.863 35.4785 230.942 35.4953 231.048 35.4785C231.183 35.4561 231.3 35.3158 231.244 35.0242C231.188 34.7269 230.914 34.6091 230.723 34.5586C230.51 34.5025 230.667 34.4015 230.852 34.4352C231.205 34.5025 231.463 34.6708 231.519 34.9793C231.53 35.0298 231.53 35.1027 231.53 35.1644C231.536 35.3383 231.659 35.2766 231.76 35.1307C231.956 34.8615 231.995 34.5866 231.962 34.4015C231.906 34.0818 231.457 33.9528 231.457 33.8799C231.457 33.8574 231.485 33.835 231.508 33.8294C231.682 33.7957 232.158 34.0033 232.225 34.3847C232.259 34.5866 232.225 34.6988 232.192 34.8895C232.186 34.9288 232.214 34.9681 232.276 34.9008C232.5 34.6708 232.69 34.2613 232.623 33.8967C232.556 33.4984 232.147 33.3638 232.136 33.2965C232.136 33.2797 232.164 33.2516 232.197 33.246C232.365 33.218 232.814 33.4816 232.898 33.9191C232.976 34.3062 232.791 35.1083 231.592 35.7478C232.096 35.6356 232.236 35.6524 232.287 35.7141C232.864 35.557 233.234 35.4392 233.385 35.4729C233.548 35.7197 233.206 35.8207 233.2 36.0058C233.2 36.1853 233.604 35.888 233.537 36.1684C233.413 36.3928 233.262 36.4096 233.083 36.477C232.993 36.5387 232.634 36.7967 232.444 36.9537C233.021 37.3576 233.615 37.969 233.654 37.9971C233.688 38.0868 233.834 38.3392 233.991 38.7207C233.991 38.7263 234.002 38.7375 234.002 38.7431C234.086 38.4963 234.215 38.0812 234.276 37.8737C234.327 37.6942 234.31 37.6325 234.366 37.5259C234.417 37.4361 234.579 37.2847 234.725 37.0715C234.854 36.8808 235.061 36.5835 235.134 36.4713C235.257 36.2862 235.375 36.3255 235.599 36.2638C235.683 36.2414 235.941 36.2245 236.036 36.2301L236.031 36.2189ZM231.48 36.247C231.508 36.2189 231.553 36.1741 231.598 36.1516C231.693 36.0955 231.822 36.0731 231.906 36.0563C231.945 36.118 231.928 36.2245 231.861 36.3087C231.788 36.3928 231.704 36.3536 231.626 36.3199C231.569 36.2919 231.53 36.2975 231.508 36.2975C231.48 36.2975 231.463 36.2694 231.48 36.2526V36.247ZM253.662 38.7711C253.668 35.3607 256.42 32.601 259.799 32.6066C263.184 32.6122 265.919 35.3832 265.913 38.7936C265.908 42.204 263.162 44.9638 259.777 44.9581C256.392 44.9525 253.657 42.1143 253.662 38.7711ZM262.612 34.5642C262.652 34.6091 262.674 34.6652 262.674 34.7325C262.674 34.8839 262.556 35.0129 262.405 35.0129C262.254 35.0129 262.13 34.8951 262.125 34.7437C262.125 34.6035 262.22 34.4857 262.36 34.4632L262.046 33.9752L261.508 34.2108C261.564 34.2613 261.598 34.3286 261.604 34.4071C261.604 34.5586 261.486 34.6876 261.335 34.6932C261.183 34.6932 261.054 34.5754 261.049 34.424C261.049 34.3062 261.116 34.2052 261.217 34.1603C261.054 33.9865 260.707 33.7284 260.376 33.6162C260.634 34.0818 260.774 34.6596 260.763 35.142C261.11 35.1195 262.058 35.4112 262.416 35.6804C262.708 35.2485 263.15 34.8334 263.638 34.6652C263.403 34.5866 262.949 34.5137 262.612 34.5586V34.5642ZM260.892 35.7926C260.847 35.7926 260.808 35.787 260.769 35.7758C260.729 35.7702 260.713 35.7478 260.701 35.7365C260.69 35.7253 260.657 35.6804 260.561 35.6748C260.399 35.6636 260.315 35.787 260.309 35.8655C260.303 35.9216 260.32 35.9777 260.354 36.0226C260.387 36.0619 260.427 36.0787 260.477 36.0843C260.511 36.0843 260.544 36.0843 260.578 36.0675C260.645 36.0282 260.679 35.9721 260.701 35.9104C260.713 35.888 260.791 35.8543 260.875 35.8487C260.892 35.8487 260.903 35.8375 260.909 35.8207C260.909 35.8038 260.909 35.787 260.886 35.787L260.892 35.7926ZM259.233 35.8824C259.199 35.9385 259.205 36.0002 259.216 36.0507C259.216 36.0507 259.239 36.0843 259.244 36.0899C259.222 36.1797 259.227 36.3031 259.261 36.4657C259.283 36.5611 259.367 36.5947 259.53 36.6004C259.53 36.6396 259.536 36.6789 259.547 36.7182C259.547 36.7182 259.547 36.7294 259.547 36.735C259.452 36.763 259.356 36.7742 259.272 36.7742C259.02 36.7574 258.857 36.6172 258.891 36.3592C258.897 36.3143 258.908 36.275 258.936 36.2301C258.947 36.2077 258.936 36.1909 258.914 36.1853C258.824 36.1516 258.56 36.3704 258.521 36.6677C258.488 36.9537 258.645 37.1108 258.88 37.1276C259.009 37.1332 259.183 37.1164 259.373 37.0435C259.687 36.9145 260.046 36.8752 260.27 37.0996C260.102 37.0659 259.676 37.0996 259.552 37.122C259.367 37.1557 259.278 37.5371 259.485 37.5483C259.642 37.5595 260.219 37.5203 260.253 37.5315C260.191 37.7839 259.821 38.098 259.457 38.1766C259.233 38.0812 258.588 38.1092 258.297 38.1934C257.927 37.7783 257.658 37.0042 257.63 36.7462C257.619 36.6284 257.613 36.4938 257.675 36.3872C257.793 36.1797 258.028 36.1965 258.14 36.017C258.202 35.916 258.174 35.8038 258.191 35.6917C258.196 35.6468 258.291 35.4841 258.174 35.428C258.123 35.4897 258.039 35.5402 257.933 35.5066C257.866 35.4841 257.787 35.4617 257.714 35.4897C257.585 35.5458 257.563 35.7029 257.462 35.8095C257.412 35.8655 257.339 35.8431 257.355 35.7478C257.384 35.6019 257.451 35.4617 257.428 35.3158C257.406 35.1644 257.294 35.0466 257.137 34.9625C257.07 34.9288 256.997 34.8615 256.918 34.8391C256.845 34.8222 256.784 34.8447 256.784 34.8783C256.817 34.9064 256.845 34.9456 256.851 35.0017C256.851 35.1363 256.705 35.2093 256.705 35.3383C256.705 35.5346 256.84 35.7141 256.851 35.8151C256.862 35.8936 256.795 35.8936 256.75 35.8712C256.649 35.8151 256.492 35.7309 256.341 35.7253C256.218 35.7253 256.139 35.8207 256.033 35.8655C255.988 35.8824 255.797 35.8824 255.831 35.9721C255.938 35.9946 256.016 36.0619 256.05 36.1572C256.078 36.2301 256.094 36.2919 256.162 36.3423C256.279 36.4265 256.526 36.404 256.644 36.4265C256.722 36.4433 256.812 36.4882 256.834 36.6452C256.851 36.7574 256.812 36.8808 256.756 36.9706C256.661 37.1332 256.616 37.3015 256.661 37.4642C256.705 37.4025 256.75 37.38 256.801 37.38C256.902 37.38 256.935 37.4978 256.862 37.6605C256.795 37.8064 256.75 37.9746 256.817 38.1597C256.845 38.098 256.902 38.0588 256.958 38.0588C257.053 38.0588 257.103 38.1597 257.036 38.3392C256.974 38.5075 256.958 38.6646 257.025 38.8216C257.053 38.7543 257.103 38.7038 257.171 38.7038C257.271 38.7038 257.311 38.8048 257.35 38.8889C257.468 39.1694 257.653 39.3208 258.112 39.3208C257.95 39.6237 256.621 39.4274 256.083 39.3657C255.966 39.3545 255.898 39.3208 255.865 39.2255C255.781 39.0123 255.977 38.8385 255.865 38.6141C255.809 38.5019 255.719 38.4739 255.624 38.4122C255.579 38.3841 255.456 38.227 255.377 38.2944C255.411 38.3785 255.405 38.4514 255.31 38.5355C255.248 38.5916 255.187 38.6365 255.175 38.7263C255.159 38.8777 255.282 39.0179 255.321 39.1526C255.355 39.2479 255.299 39.2872 255.215 39.2255C255.086 39.1301 254.901 38.9002 254.705 38.9002C254.57 38.9002 254.536 38.9787 254.43 39.0292C254.385 39.0516 254.172 39.074 254.195 39.175C254.284 39.1918 254.363 39.2423 254.391 39.3657C254.408 39.4443 254.424 39.5284 254.497 39.5845C254.677 39.7191 254.957 39.663 255.125 39.6967C255.192 39.7079 255.203 39.764 255.136 39.8032C254.996 39.8874 254.8 39.9435 254.727 40.0837C254.671 40.2015 254.705 40.3305 254.705 40.4427C254.705 40.4932 254.637 40.6502 254.749 40.6839C254.805 40.611 254.878 40.5549 255.007 40.5717C255.091 40.5829 255.159 40.6222 255.243 40.5773C255.377 40.5044 255.394 40.381 255.467 40.2576C255.506 40.1959 255.568 40.1342 255.663 40.1342C255.725 40.1342 255.781 40.1454 255.831 40.1903C255.938 40.2856 255.926 40.51 256.251 40.5605C256.235 40.5268 256.223 40.482 256.223 40.4427C256.223 40.3754 256.263 40.3249 256.33 40.3249C256.403 40.3249 256.459 40.3642 256.526 40.4764C256.61 40.6222 256.705 40.6671 256.851 40.6839C256.834 40.6502 256.823 40.5998 256.823 40.5605C256.823 40.4932 256.862 40.4483 256.924 40.4483C256.963 40.4483 257.036 40.4651 257.092 40.5661C257.187 40.7288 257.255 40.8017 257.417 40.8185C257.367 40.7232 257.406 40.5998 257.529 40.5998C257.653 40.5998 257.966 40.7063 258.202 40.8017C258.196 41.4019 258.583 42.0413 259.16 42.434C259.138 42.3218 259.199 42.2545 259.283 42.2545C259.519 42.2545 259.636 42.8098 260.163 43.0566C260.135 42.95 260.191 42.8827 260.27 42.8827C260.331 42.8827 260.416 42.922 260.46 42.9444C260.931 43.1968 261.43 43.5222 261.671 43.7297C262.158 43.5783 262.954 43.1015 263.476 42.5686C263.156 42.4676 262.271 41.8057 261.962 41.486C261.408 40.9139 261.256 40.3137 261.256 39.8706C261.256 39.7247 261.279 39.5845 261.312 39.4723C261.475 39.5677 261.705 39.5564 261.845 39.4274C261.592 39.2255 261.626 38.8385 261.716 38.6926C261.856 38.8104 262.114 38.7711 262.243 38.659C262.046 38.5412 261.946 38.2214 262.046 37.9522C262.153 38.0644 262.405 38.07 262.562 37.9466C262.36 37.7727 262.254 37.5035 262.31 37.1837C262.405 37.3127 262.579 37.3296 262.713 37.2791C262.629 37.1052 262.624 36.8191 262.601 36.634C262.568 36.376 262.495 36.0787 262.405 35.9216C262.125 35.6804 261.279 35.3383 260.746 35.3383C260.673 35.3383 260.6 35.3495 260.544 35.3607C260.399 35.3944 260.292 35.4449 260.287 35.4729C260.208 35.5963 260.012 35.6244 259.838 35.6692C259.709 35.7029 259.373 35.7982 259.244 35.8712L259.233 35.8824ZM260.046 40.0332H260.001C259.967 40.3922 259.765 40.9419 259.642 41.1439L259.877 40.9644L260.029 41.1439L260.18 40.9644L260.399 41.1439C260.281 40.9363 260.09 40.3922 260.051 40.0332H260.046ZM264.137 41.7833C264.187 41.7104 264.249 41.6094 264.249 41.6094C264.025 41.2616 263.851 40.8858 263.879 40.4483C263.913 39.9715 264.182 39.8313 264.383 39.8425C264.568 39.8481 264.697 39.994 264.709 40.2015C264.871 40.0669 264.938 39.9098 264.95 39.7528C264.961 39.6294 264.899 39.4386 264.692 39.3882C265.067 39.0404 265.034 38.3392 264.647 38.0756C264.703 38.5748 264.327 38.9226 263.991 39.2479C263.543 39.6854 263.481 40.1791 263.56 40.6951C263.291 40.1791 263.167 39.6911 263.201 39.2087C263.24 38.6702 263.509 38.1092 263.907 38.1373C264.036 38.1485 264.165 38.2102 264.215 38.3224C264.406 38.0083 264.271 37.6549 263.969 37.6325C264.277 36.8864 263.778 36.1404 263.363 35.9777C263.47 36.2021 263.52 36.4265 263.504 36.6845C263.453 37.4025 262.831 37.969 262.764 39.0348C262.697 40.1847 263.335 41.1831 264.019 41.9516C264.019 41.9516 264.075 41.8787 264.137 41.7889V41.7833ZM261.43 41.6094H261.385C261.351 41.974 261.15 42.5237 261.026 42.7201L261.256 42.535L261.407 42.7201L261.559 42.5406L261.777 42.7201C261.66 42.5069 261.469 41.9684 261.43 41.6094ZM260.365 36.9481C260.404 36.8752 260.421 36.7799 260.421 36.7238C260.421 36.6845 260.421 36.6284 260.376 36.5835C260.331 36.5387 260.225 36.5162 260.107 36.5162C259.99 36.5162 259.872 36.5331 259.805 36.5779C259.793 36.6116 259.782 36.6508 259.76 36.6957C259.973 36.6957 260.197 36.7462 260.365 36.9481Z" fill="#4F2683"/>
</g>
<defs>
<clipPath id="clip0_8427_2169">
<rect width="272" height="65" fill="white"/>
</clipPath>
</defs>
</svg>
